G04 (created by PCBNEW (2013-may-18)-stable) date Sat 11 Jan 2014 03:04:39 PM CET*
%MOIN*%
G04 Gerber Fmt 3.4, Leading zero omitted, Abs format*
%FSLAX34Y34*%
G01*
G70*
G90*
G04 APERTURE LIST*
%ADD10C,0.00590551*%
%ADD11C,0.02*%
%ADD12C,0.0001*%
G04 APERTURE END LIST*
G54D10*
G54D11*
X40940Y-44238D02*
X40940Y-45095D01*
X40988Y-45190D01*
X41083Y-45238D01*
X41130Y-45238D01*
X40940Y-43904D02*
X40988Y-43952D01*
X40940Y-44000D01*
X40892Y-43952D01*
X40940Y-43904D01*
X40940Y-44000D01*
X40035Y-44904D02*
X40035Y-44380D01*
X40083Y-44285D01*
X40178Y-44238D01*
X40369Y-44238D01*
X40464Y-44285D01*
X40035Y-44857D02*
X40130Y-44904D01*
X40369Y-44904D01*
X40464Y-44857D01*
X40511Y-44761D01*
X40511Y-44666D01*
X40464Y-44571D01*
X40369Y-44523D01*
X40130Y-44523D01*
X40035Y-44476D01*
X39607Y-44857D02*
X39511Y-44904D01*
X39321Y-44904D01*
X39226Y-44857D01*
X39178Y-44761D01*
X39178Y-44714D01*
X39226Y-44619D01*
X39321Y-44571D01*
X39464Y-44571D01*
X39559Y-44523D01*
X39607Y-44428D01*
X39607Y-44380D01*
X39559Y-44285D01*
X39464Y-44238D01*
X39321Y-44238D01*
X39226Y-44285D01*
X38369Y-44857D02*
X38464Y-44904D01*
X38654Y-44904D01*
X38750Y-44857D01*
X38797Y-44761D01*
X38797Y-44380D01*
X38750Y-44285D01*
X38654Y-44238D01*
X38464Y-44238D01*
X38369Y-44285D01*
X38321Y-44380D01*
X38321Y-44476D01*
X38797Y-44571D01*
X37464Y-44238D02*
X37464Y-45047D01*
X37511Y-45142D01*
X37559Y-45190D01*
X37654Y-45238D01*
X37797Y-45238D01*
X37892Y-45190D01*
X37464Y-44857D02*
X37559Y-44904D01*
X37750Y-44904D01*
X37845Y-44857D01*
X37892Y-44809D01*
X37940Y-44714D01*
X37940Y-44428D01*
X37892Y-44333D01*
X37845Y-44285D01*
X37750Y-44238D01*
X37559Y-44238D01*
X37464Y-44285D01*
X36988Y-44809D02*
X36940Y-44857D01*
X36988Y-44904D01*
X37035Y-44857D01*
X36988Y-44809D01*
X36988Y-44904D01*
X36511Y-44238D02*
X36511Y-44904D01*
X36511Y-44333D02*
X36464Y-44285D01*
X36369Y-44238D01*
X36226Y-44238D01*
X36130Y-44285D01*
X36083Y-44380D01*
X36083Y-44904D01*
X35226Y-44857D02*
X35321Y-44904D01*
X35511Y-44904D01*
X35607Y-44857D01*
X35654Y-44761D01*
X35654Y-44380D01*
X35607Y-44285D01*
X35511Y-44238D01*
X35321Y-44238D01*
X35226Y-44285D01*
X35178Y-44380D01*
X35178Y-44476D01*
X35654Y-44571D01*
X34892Y-44238D02*
X34511Y-44238D01*
X34750Y-43904D02*
X34750Y-44761D01*
X34702Y-44857D01*
X34607Y-44904D01*
X34511Y-44904D01*
X33464Y-43857D02*
X34321Y-45142D01*
X33130Y-44904D02*
X33130Y-43904D01*
X33130Y-44285D02*
X33035Y-44238D01*
X32845Y-44238D01*
X32750Y-44285D01*
X32702Y-44333D01*
X32654Y-44428D01*
X32654Y-44714D01*
X32702Y-44809D01*
X32750Y-44857D01*
X32845Y-44904D01*
X33035Y-44904D01*
X33130Y-44857D01*
X32226Y-44904D02*
X32226Y-44238D01*
X32226Y-43904D02*
X32273Y-43952D01*
X32226Y-44000D01*
X32178Y-43952D01*
X32226Y-43904D01*
X32226Y-44000D01*
X31750Y-44904D02*
X31750Y-43904D01*
X31654Y-44523D02*
X31369Y-44904D01*
X31369Y-44238D02*
X31750Y-44619D01*
X30559Y-44857D02*
X30654Y-44904D01*
X30845Y-44904D01*
X30940Y-44857D01*
X30988Y-44761D01*
X30988Y-44380D01*
X30940Y-44285D01*
X30845Y-44238D01*
X30654Y-44238D01*
X30559Y-44285D01*
X30511Y-44380D01*
X30511Y-44476D01*
X30988Y-44571D01*
X29940Y-44904D02*
X30035Y-44857D01*
X30083Y-44761D01*
X30083Y-43904D01*
X29559Y-44904D02*
X29559Y-44238D01*
X29559Y-43904D02*
X29607Y-43952D01*
X29559Y-44000D01*
X29511Y-43952D01*
X29559Y-43904D01*
X29559Y-44000D01*
X28654Y-44238D02*
X28654Y-45047D01*
X28702Y-45142D01*
X28750Y-45190D01*
X28845Y-45238D01*
X28988Y-45238D01*
X29083Y-45190D01*
X28654Y-44857D02*
X28750Y-44904D01*
X28940Y-44904D01*
X29035Y-44857D01*
X29083Y-44809D01*
X29130Y-44714D01*
X29130Y-44428D01*
X29083Y-44333D01*
X29035Y-44285D01*
X28940Y-44238D01*
X28750Y-44238D01*
X28654Y-44285D01*
X28178Y-44904D02*
X28178Y-43904D01*
X27750Y-44904D02*
X27750Y-44380D01*
X27797Y-44285D01*
X27892Y-44238D01*
X28035Y-44238D01*
X28130Y-44285D01*
X28178Y-44333D01*
X27416Y-44238D02*
X27035Y-44238D01*
X27273Y-43904D02*
X27273Y-44761D01*
X27226Y-44857D01*
X27130Y-44904D01*
X27035Y-44904D01*
X26750Y-44857D02*
X26654Y-44904D01*
X26464Y-44904D01*
X26369Y-44857D01*
X26321Y-44761D01*
X26321Y-44714D01*
X26369Y-44619D01*
X26464Y-44571D01*
X26607Y-44571D01*
X26702Y-44523D01*
X26750Y-44428D01*
X26750Y-44380D01*
X26702Y-44285D01*
X26607Y-44238D01*
X26464Y-44238D01*
X26369Y-44285D01*
X25892Y-44809D02*
X25845Y-44857D01*
X25892Y-44904D01*
X25940Y-44857D01*
X25892Y-44809D01*
X25892Y-44904D01*
X25416Y-44904D02*
X25416Y-43904D01*
X24988Y-44904D02*
X24988Y-44380D01*
X25035Y-44285D01*
X25130Y-44238D01*
X25273Y-44238D01*
X25369Y-44285D01*
X25416Y-44333D01*
X24654Y-44238D02*
X24273Y-44238D01*
X24511Y-43904D02*
X24511Y-44761D01*
X24464Y-44857D01*
X24369Y-44904D01*
X24273Y-44904D01*
X23940Y-44904D02*
X23940Y-44238D01*
X23940Y-44333D02*
X23892Y-44285D01*
X23797Y-44238D01*
X23654Y-44238D01*
X23559Y-44285D01*
X23511Y-44380D01*
X23511Y-44904D01*
X23511Y-44380D02*
X23464Y-44285D01*
X23369Y-44238D01*
X23226Y-44238D01*
X23130Y-44285D01*
X23083Y-44380D01*
X23083Y-44904D01*
X22464Y-44904D02*
X22559Y-44857D01*
X22607Y-44761D01*
X22607Y-43904D01*
X40761Y-42559D02*
X40809Y-42607D01*
X40952Y-42654D01*
X41047Y-42654D01*
X41190Y-42607D01*
X41285Y-42511D01*
X41333Y-42416D01*
X41380Y-42226D01*
X41380Y-42083D01*
X41333Y-41892D01*
X41285Y-41797D01*
X41190Y-41702D01*
X41047Y-41654D01*
X40952Y-41654D01*
X40809Y-41702D01*
X40761Y-41750D01*
X39761Y-42559D02*
X39809Y-42607D01*
X39952Y-42654D01*
X40047Y-42654D01*
X40190Y-42607D01*
X40285Y-42511D01*
X40333Y-42416D01*
X40380Y-42226D01*
X40380Y-42083D01*
X40333Y-41892D01*
X40285Y-41797D01*
X40190Y-41702D01*
X40047Y-41654D01*
X39952Y-41654D01*
X39809Y-41702D01*
X39761Y-41750D01*
X39333Y-42273D02*
X38571Y-42273D01*
X37761Y-42130D02*
X37619Y-42178D01*
X37571Y-42226D01*
X37523Y-42321D01*
X37523Y-42464D01*
X37571Y-42559D01*
X37619Y-42607D01*
X37714Y-42654D01*
X38095Y-42654D01*
X38095Y-41654D01*
X37761Y-41654D01*
X37666Y-41702D01*
X37619Y-41750D01*
X37571Y-41845D01*
X37571Y-41940D01*
X37619Y-42035D01*
X37666Y-42083D01*
X37761Y-42130D01*
X38095Y-42130D01*
X36904Y-42178D02*
X36904Y-42654D01*
X37238Y-41654D02*
X36904Y-42178D01*
X36571Y-41654D01*
X36238Y-42273D02*
X35476Y-42273D01*
X35047Y-42607D02*
X34904Y-42654D01*
X34666Y-42654D01*
X34571Y-42607D01*
X34523Y-42559D01*
X34476Y-42464D01*
X34476Y-42369D01*
X34523Y-42273D01*
X34571Y-42226D01*
X34666Y-42178D01*
X34857Y-42130D01*
X34952Y-42083D01*
X35000Y-42035D01*
X35047Y-41940D01*
X35047Y-41845D01*
X35000Y-41750D01*
X34952Y-41702D01*
X34857Y-41654D01*
X34619Y-41654D01*
X34476Y-41702D01*
X34095Y-42369D02*
X33619Y-42369D01*
X34190Y-42654D02*
X33857Y-41654D01*
X33523Y-42654D01*
X40654Y-40904D02*
X40988Y-40428D01*
X41226Y-40904D02*
X41226Y-39904D01*
X40845Y-39904D01*
X40749Y-39952D01*
X40702Y-40000D01*
X40654Y-40095D01*
X40654Y-40238D01*
X40702Y-40333D01*
X40749Y-40380D01*
X40845Y-40428D01*
X41226Y-40428D01*
X39845Y-40857D02*
X39940Y-40904D01*
X40130Y-40904D01*
X40226Y-40857D01*
X40273Y-40761D01*
X40273Y-40380D01*
X40226Y-40285D01*
X40130Y-40238D01*
X39940Y-40238D01*
X39845Y-40285D01*
X39797Y-40380D01*
X39797Y-40476D01*
X40273Y-40571D01*
X39226Y-40904D02*
X39321Y-40857D01*
X39369Y-40761D01*
X39369Y-39904D01*
X38464Y-40857D02*
X38559Y-40904D01*
X38749Y-40904D01*
X38845Y-40857D01*
X38892Y-40761D01*
X38892Y-40380D01*
X38845Y-40285D01*
X38749Y-40238D01*
X38559Y-40238D01*
X38464Y-40285D01*
X38416Y-40380D01*
X38416Y-40476D01*
X38892Y-40571D01*
X37559Y-40904D02*
X37559Y-40380D01*
X37607Y-40285D01*
X37702Y-40238D01*
X37892Y-40238D01*
X37988Y-40285D01*
X37559Y-40857D02*
X37654Y-40904D01*
X37892Y-40904D01*
X37988Y-40857D01*
X38035Y-40761D01*
X38035Y-40666D01*
X37988Y-40571D01*
X37892Y-40523D01*
X37654Y-40523D01*
X37559Y-40476D01*
X37130Y-40857D02*
X37035Y-40904D01*
X36845Y-40904D01*
X36749Y-40857D01*
X36702Y-40761D01*
X36702Y-40714D01*
X36749Y-40619D01*
X36845Y-40571D01*
X36988Y-40571D01*
X37083Y-40523D01*
X37130Y-40428D01*
X37130Y-40380D01*
X37083Y-40285D01*
X36988Y-40238D01*
X36845Y-40238D01*
X36749Y-40285D01*
X35892Y-40857D02*
X35988Y-40904D01*
X36178Y-40904D01*
X36273Y-40857D01*
X36321Y-40761D01*
X36321Y-40380D01*
X36273Y-40285D01*
X36178Y-40238D01*
X35988Y-40238D01*
X35892Y-40285D01*
X35845Y-40380D01*
X35845Y-40476D01*
X36321Y-40571D01*
X34988Y-40904D02*
X34988Y-39904D01*
X34988Y-40857D02*
X35083Y-40904D01*
X35273Y-40904D01*
X35369Y-40857D01*
X35416Y-40809D01*
X35464Y-40714D01*
X35464Y-40428D01*
X35416Y-40333D01*
X35369Y-40285D01*
X35273Y-40238D01*
X35083Y-40238D01*
X34988Y-40285D01*
X33321Y-40238D02*
X33321Y-40904D01*
X33750Y-40238D02*
X33750Y-40761D01*
X33702Y-40857D01*
X33607Y-40904D01*
X33464Y-40904D01*
X33369Y-40857D01*
X33321Y-40809D01*
X32845Y-40238D02*
X32845Y-40904D01*
X32845Y-40333D02*
X32797Y-40285D01*
X32702Y-40238D01*
X32559Y-40238D01*
X32464Y-40285D01*
X32416Y-40380D01*
X32416Y-40904D01*
X31511Y-40904D02*
X31511Y-39904D01*
X31511Y-40857D02*
X31607Y-40904D01*
X31797Y-40904D01*
X31892Y-40857D01*
X31940Y-40809D01*
X31988Y-40714D01*
X31988Y-40428D01*
X31940Y-40333D01*
X31892Y-40285D01*
X31797Y-40238D01*
X31607Y-40238D01*
X31511Y-40285D01*
X30654Y-40857D02*
X30750Y-40904D01*
X30940Y-40904D01*
X31035Y-40857D01*
X31083Y-40761D01*
X31083Y-40380D01*
X31035Y-40285D01*
X30940Y-40238D01*
X30750Y-40238D01*
X30654Y-40285D01*
X30607Y-40380D01*
X30607Y-40476D01*
X31083Y-40571D01*
X30178Y-40904D02*
X30178Y-40238D01*
X30178Y-40428D02*
X30130Y-40333D01*
X30083Y-40285D01*
X29988Y-40238D01*
X29892Y-40238D01*
X28226Y-40809D02*
X28273Y-40857D01*
X28416Y-40904D01*
X28511Y-40904D01*
X28654Y-40857D01*
X28750Y-40761D01*
X28797Y-40666D01*
X28845Y-40476D01*
X28845Y-40333D01*
X28797Y-40142D01*
X28750Y-40047D01*
X28654Y-39952D01*
X28511Y-39904D01*
X28416Y-39904D01*
X28273Y-39952D01*
X28226Y-40000D01*
X27797Y-40904D02*
X27797Y-40238D01*
X27797Y-40428D02*
X27750Y-40333D01*
X27702Y-40285D01*
X27607Y-40238D01*
X27511Y-40238D01*
X26797Y-40857D02*
X26892Y-40904D01*
X27083Y-40904D01*
X27178Y-40857D01*
X27226Y-40761D01*
X27226Y-40380D01*
X27178Y-40285D01*
X27083Y-40238D01*
X26892Y-40238D01*
X26797Y-40285D01*
X26750Y-40380D01*
X26750Y-40476D01*
X27226Y-40571D01*
X25892Y-40904D02*
X25892Y-40380D01*
X25940Y-40285D01*
X26035Y-40238D01*
X26226Y-40238D01*
X26321Y-40285D01*
X25892Y-40857D02*
X25988Y-40904D01*
X26226Y-40904D01*
X26321Y-40857D01*
X26369Y-40761D01*
X26369Y-40666D01*
X26321Y-40571D01*
X26226Y-40523D01*
X25988Y-40523D01*
X25892Y-40476D01*
X25559Y-40238D02*
X25178Y-40238D01*
X25416Y-39904D02*
X25416Y-40761D01*
X25369Y-40857D01*
X25273Y-40904D01*
X25178Y-40904D01*
X24845Y-40904D02*
X24845Y-40238D01*
X24845Y-39904D02*
X24892Y-39952D01*
X24845Y-40000D01*
X24797Y-39952D01*
X24845Y-39904D01*
X24845Y-40000D01*
X24464Y-40238D02*
X24226Y-40904D01*
X23988Y-40238D01*
X23226Y-40857D02*
X23321Y-40904D01*
X23511Y-40904D01*
X23607Y-40857D01*
X23654Y-40761D01*
X23654Y-40380D01*
X23607Y-40285D01*
X23511Y-40238D01*
X23321Y-40238D01*
X23226Y-40285D01*
X23178Y-40380D01*
X23178Y-40476D01*
X23654Y-40571D01*
X21416Y-40809D02*
X21464Y-40857D01*
X21607Y-40904D01*
X21702Y-40904D01*
X21845Y-40857D01*
X21940Y-40761D01*
X21988Y-40666D01*
X22035Y-40476D01*
X22035Y-40333D01*
X21988Y-40142D01*
X21940Y-40047D01*
X21845Y-39952D01*
X21702Y-39904D01*
X21607Y-39904D01*
X21464Y-39952D01*
X21416Y-40000D01*
X20845Y-40904D02*
X20940Y-40857D01*
X20988Y-40809D01*
X21035Y-40714D01*
X21035Y-40428D01*
X20988Y-40333D01*
X20940Y-40285D01*
X20845Y-40238D01*
X20702Y-40238D01*
X20607Y-40285D01*
X20559Y-40333D01*
X20511Y-40428D01*
X20511Y-40714D01*
X20559Y-40809D01*
X20607Y-40857D01*
X20702Y-40904D01*
X20845Y-40904D01*
X20083Y-40904D02*
X20083Y-40238D01*
X20083Y-40333D02*
X20035Y-40285D01*
X19940Y-40238D01*
X19797Y-40238D01*
X19702Y-40285D01*
X19654Y-40380D01*
X19654Y-40904D01*
X19654Y-40380D02*
X19607Y-40285D01*
X19511Y-40238D01*
X19369Y-40238D01*
X19273Y-40285D01*
X19226Y-40380D01*
X19226Y-40904D01*
X18750Y-40904D02*
X18750Y-40238D01*
X18750Y-40333D02*
X18702Y-40285D01*
X18607Y-40238D01*
X18464Y-40238D01*
X18369Y-40285D01*
X18321Y-40380D01*
X18321Y-40904D01*
X18321Y-40380D02*
X18273Y-40285D01*
X18178Y-40238D01*
X18035Y-40238D01*
X17940Y-40285D01*
X17892Y-40380D01*
X17892Y-40904D01*
X17273Y-40904D02*
X17369Y-40857D01*
X17416Y-40809D01*
X17464Y-40714D01*
X17464Y-40428D01*
X17416Y-40333D01*
X17369Y-40285D01*
X17273Y-40238D01*
X17130Y-40238D01*
X17035Y-40285D01*
X16988Y-40333D01*
X16940Y-40428D01*
X16940Y-40714D01*
X16988Y-40809D01*
X17035Y-40857D01*
X17130Y-40904D01*
X17273Y-40904D01*
X16511Y-40238D02*
X16511Y-40904D01*
X16511Y-40333D02*
X16464Y-40285D01*
X16369Y-40238D01*
X16226Y-40238D01*
X16130Y-40285D01*
X16083Y-40380D01*
X16083Y-40904D01*
X15654Y-40857D02*
X15559Y-40904D01*
X15369Y-40904D01*
X15273Y-40857D01*
X15226Y-40761D01*
X15226Y-40714D01*
X15273Y-40619D01*
X15369Y-40571D01*
X15511Y-40571D01*
X15607Y-40523D01*
X15654Y-40428D01*
X15654Y-40380D01*
X15607Y-40285D01*
X15511Y-40238D01*
X15369Y-40238D01*
X15273Y-40285D01*
X37178Y-39535D02*
X37226Y-39488D01*
X37321Y-39345D01*
X37369Y-39250D01*
X37416Y-39107D01*
X37464Y-38869D01*
X37464Y-38678D01*
X37416Y-38440D01*
X37369Y-38297D01*
X37321Y-38202D01*
X37226Y-38059D01*
X37178Y-38011D01*
X36369Y-39107D02*
X36464Y-39154D01*
X36654Y-39154D01*
X36750Y-39107D01*
X36797Y-39059D01*
X36845Y-38964D01*
X36845Y-38678D01*
X36797Y-38583D01*
X36750Y-38535D01*
X36654Y-38488D01*
X36464Y-38488D01*
X36369Y-38535D01*
X36035Y-39535D02*
X35988Y-39488D01*
X35892Y-39345D01*
X35845Y-39250D01*
X35797Y-39107D01*
X35750Y-38869D01*
X35750Y-38678D01*
X35797Y-38440D01*
X35845Y-38297D01*
X35892Y-38202D01*
X35988Y-38059D01*
X36035Y-38011D01*
X34559Y-38250D02*
X34511Y-38202D01*
X34416Y-38154D01*
X34178Y-38154D01*
X34083Y-38202D01*
X34035Y-38250D01*
X33988Y-38345D01*
X33988Y-38440D01*
X34035Y-38583D01*
X34607Y-39154D01*
X33988Y-39154D01*
X33369Y-38154D02*
X33273Y-38154D01*
X33178Y-38202D01*
X33130Y-38250D01*
X33083Y-38345D01*
X33035Y-38535D01*
X33035Y-38773D01*
X33083Y-38964D01*
X33130Y-39059D01*
X33178Y-39107D01*
X33273Y-39154D01*
X33369Y-39154D01*
X33464Y-39107D01*
X33511Y-39059D01*
X33559Y-38964D01*
X33607Y-38773D01*
X33607Y-38535D01*
X33559Y-38345D01*
X33511Y-38250D01*
X33464Y-38202D01*
X33369Y-38154D01*
X32083Y-39154D02*
X32654Y-39154D01*
X32369Y-39154D02*
X32369Y-38154D01*
X32464Y-38297D01*
X32559Y-38392D01*
X32654Y-38440D01*
X31226Y-38488D02*
X31226Y-39154D01*
X31464Y-38107D02*
X31702Y-38821D01*
X31083Y-38821D01*
X29940Y-39154D02*
X29940Y-38154D01*
X29940Y-38535D02*
X29845Y-38488D01*
X29654Y-38488D01*
X29559Y-38535D01*
X29511Y-38583D01*
X29464Y-38678D01*
X29464Y-38964D01*
X29511Y-39059D01*
X29559Y-39107D01*
X29654Y-39154D01*
X29845Y-39154D01*
X29940Y-39107D01*
X29130Y-38488D02*
X28892Y-39154D01*
X28654Y-38488D02*
X28892Y-39154D01*
X28988Y-39392D01*
X29035Y-39440D01*
X29130Y-39488D01*
X27511Y-38488D02*
X27511Y-39345D01*
X27559Y-39440D01*
X27654Y-39488D01*
X27702Y-39488D01*
X27511Y-38154D02*
X27559Y-38202D01*
X27511Y-38250D01*
X27464Y-38202D01*
X27511Y-38154D01*
X27511Y-38250D01*
X26607Y-39154D02*
X26607Y-38630D01*
X26654Y-38535D01*
X26749Y-38488D01*
X26940Y-38488D01*
X27035Y-38535D01*
X26607Y-39107D02*
X26702Y-39154D01*
X26940Y-39154D01*
X27035Y-39107D01*
X27083Y-39011D01*
X27083Y-38916D01*
X27035Y-38821D01*
X26940Y-38773D01*
X26702Y-38773D01*
X26607Y-38726D01*
X26178Y-39107D02*
X26083Y-39154D01*
X25892Y-39154D01*
X25797Y-39107D01*
X25749Y-39011D01*
X25749Y-38964D01*
X25797Y-38869D01*
X25892Y-38821D01*
X26035Y-38821D01*
X26130Y-38773D01*
X26178Y-38678D01*
X26178Y-38630D01*
X26130Y-38535D01*
X26035Y-38488D01*
X25892Y-38488D01*
X25797Y-38535D01*
X24940Y-39107D02*
X25035Y-39154D01*
X25226Y-39154D01*
X25321Y-39107D01*
X25369Y-39011D01*
X25369Y-38630D01*
X25321Y-38535D01*
X25226Y-38488D01*
X25035Y-38488D01*
X24940Y-38535D01*
X24892Y-38630D01*
X24892Y-38726D01*
X25369Y-38821D01*
X24035Y-38488D02*
X24035Y-39297D01*
X24083Y-39392D01*
X24130Y-39440D01*
X24226Y-39488D01*
X24369Y-39488D01*
X24464Y-39440D01*
X24035Y-39107D02*
X24130Y-39154D01*
X24321Y-39154D01*
X24416Y-39107D01*
X24464Y-39059D01*
X24511Y-38964D01*
X24511Y-38678D01*
X24464Y-38583D01*
X24416Y-38535D01*
X24321Y-38488D01*
X24130Y-38488D01*
X24035Y-38535D01*
X36845Y-36880D02*
X36702Y-36928D01*
X36654Y-36976D01*
X36607Y-37071D01*
X36607Y-37214D01*
X36654Y-37309D01*
X36702Y-37357D01*
X36797Y-37404D01*
X37178Y-37404D01*
X37178Y-36404D01*
X36845Y-36404D01*
X36750Y-36452D01*
X36702Y-36500D01*
X36654Y-36595D01*
X36654Y-36690D01*
X36702Y-36785D01*
X36750Y-36833D01*
X36845Y-36880D01*
X37178Y-36880D01*
X36178Y-37404D02*
X36178Y-36738D01*
X36178Y-36404D02*
X36226Y-36452D01*
X36178Y-36500D01*
X36130Y-36452D01*
X36178Y-36404D01*
X36178Y-36500D01*
X35702Y-37404D02*
X35702Y-36404D01*
X35607Y-37023D02*
X35321Y-37404D01*
X35321Y-36738D02*
X35702Y-37119D01*
X34511Y-37357D02*
X34607Y-37404D01*
X34797Y-37404D01*
X34892Y-37357D01*
X34940Y-37261D01*
X34940Y-36880D01*
X34892Y-36785D01*
X34797Y-36738D01*
X34607Y-36738D01*
X34511Y-36785D01*
X34464Y-36880D01*
X34464Y-36976D01*
X34940Y-37071D01*
X33892Y-37404D02*
X33988Y-37357D01*
X34035Y-37261D01*
X34035Y-36404D01*
X33511Y-37404D02*
X33511Y-36738D01*
X33511Y-36404D02*
X33559Y-36452D01*
X33511Y-36500D01*
X33464Y-36452D01*
X33511Y-36404D01*
X33511Y-36500D01*
X32607Y-36738D02*
X32607Y-37547D01*
X32654Y-37642D01*
X32702Y-37690D01*
X32797Y-37738D01*
X32940Y-37738D01*
X33035Y-37690D01*
X32607Y-37357D02*
X32702Y-37404D01*
X32892Y-37404D01*
X32988Y-37357D01*
X33035Y-37309D01*
X33083Y-37214D01*
X33083Y-36928D01*
X33035Y-36833D01*
X32988Y-36785D01*
X32892Y-36738D01*
X32702Y-36738D01*
X32607Y-36785D01*
X32130Y-37404D02*
X32130Y-36404D01*
X31702Y-37404D02*
X31702Y-36880D01*
X31750Y-36785D01*
X31845Y-36738D01*
X31988Y-36738D01*
X32083Y-36785D01*
X32130Y-36833D01*
X31369Y-36738D02*
X30988Y-36738D01*
X31226Y-36404D02*
X31226Y-37261D01*
X31178Y-37357D01*
X31083Y-37404D01*
X30988Y-37404D01*
X30702Y-37357D02*
X30607Y-37404D01*
X30416Y-37404D01*
X30321Y-37357D01*
X30273Y-37261D01*
X30273Y-37214D01*
X30321Y-37119D01*
X30416Y-37071D01*
X30559Y-37071D01*
X30654Y-37023D01*
X30702Y-36928D01*
X30702Y-36880D01*
X30654Y-36785D01*
X30559Y-36738D01*
X30416Y-36738D01*
X30321Y-36785D01*
G54D12*
G36*
X40704Y-39164D02*
X40688Y-39156D01*
X40651Y-39133D01*
X40598Y-39098D01*
X40536Y-39057D01*
X40474Y-39014D01*
X40423Y-38980D01*
X40387Y-38957D01*
X40372Y-38949D01*
X40364Y-38951D01*
X40334Y-38966D01*
X40291Y-38988D01*
X40266Y-39001D01*
X40227Y-39018D01*
X40207Y-39022D01*
X40204Y-39016D01*
X40189Y-38986D01*
X40167Y-38934D01*
X40137Y-38866D01*
X40103Y-38786D01*
X40066Y-38700D01*
X40030Y-38612D01*
X39995Y-38528D01*
X39964Y-38453D01*
X39939Y-38392D01*
X39923Y-38349D01*
X39917Y-38331D01*
X39919Y-38327D01*
X39939Y-38308D01*
X39973Y-38282D01*
X40048Y-38221D01*
X40121Y-38129D01*
X40166Y-38025D01*
X40181Y-37909D01*
X40168Y-37802D01*
X40126Y-37699D01*
X40054Y-37606D01*
X39967Y-37537D01*
X39865Y-37493D01*
X39750Y-37479D01*
X39640Y-37491D01*
X39535Y-37533D01*
X39442Y-37604D01*
X39403Y-37649D01*
X39349Y-37743D01*
X39318Y-37844D01*
X39315Y-37869D01*
X39319Y-37980D01*
X39352Y-38086D01*
X39410Y-38181D01*
X39491Y-38258D01*
X39502Y-38266D01*
X39539Y-38294D01*
X39564Y-38313D01*
X39584Y-38329D01*
X39443Y-38668D01*
X39421Y-38722D01*
X39382Y-38815D01*
X39348Y-38895D01*
X39321Y-38958D01*
X39302Y-39001D01*
X39294Y-39018D01*
X39293Y-39019D01*
X39281Y-39021D01*
X39255Y-39011D01*
X39208Y-38988D01*
X39176Y-38972D01*
X39140Y-38955D01*
X39124Y-38949D01*
X39110Y-38956D01*
X39076Y-38979D01*
X39025Y-39012D01*
X38965Y-39053D01*
X38907Y-39093D01*
X38854Y-39128D01*
X38815Y-39152D01*
X38796Y-39163D01*
X38793Y-39163D01*
X38777Y-39153D01*
X38746Y-39128D01*
X38700Y-39084D01*
X38635Y-39020D01*
X38625Y-39010D01*
X38571Y-38955D01*
X38527Y-38909D01*
X38498Y-38877D01*
X38488Y-38862D01*
X38488Y-38862D01*
X38497Y-38843D01*
X38522Y-38805D01*
X38557Y-38751D01*
X38600Y-38688D01*
X38712Y-38525D01*
X38650Y-38371D01*
X38631Y-38324D01*
X38607Y-38267D01*
X38590Y-38226D01*
X38580Y-38208D01*
X38564Y-38202D01*
X38521Y-38192D01*
X38460Y-38179D01*
X38388Y-38166D01*
X38318Y-38153D01*
X38255Y-38141D01*
X38210Y-38132D01*
X38190Y-38128D01*
X38185Y-38125D01*
X38181Y-38115D01*
X38178Y-38094D01*
X38177Y-38056D01*
X38176Y-37996D01*
X38176Y-37909D01*
X38176Y-37900D01*
X38177Y-37817D01*
X38178Y-37751D01*
X38180Y-37708D01*
X38183Y-37691D01*
X38183Y-37691D01*
X38203Y-37686D01*
X38247Y-37677D01*
X38310Y-37664D01*
X38385Y-37650D01*
X38389Y-37649D01*
X38464Y-37635D01*
X38526Y-37622D01*
X38570Y-37612D01*
X38588Y-37606D01*
X38592Y-37601D01*
X38607Y-37572D01*
X38629Y-37526D01*
X38653Y-37469D01*
X38678Y-37411D01*
X38699Y-37358D01*
X38713Y-37319D01*
X38717Y-37301D01*
X38717Y-37301D01*
X38706Y-37283D01*
X38680Y-37244D01*
X38644Y-37191D01*
X38600Y-37127D01*
X38597Y-37122D01*
X38554Y-37059D01*
X38519Y-37006D01*
X38496Y-36968D01*
X38488Y-36951D01*
X38488Y-36950D01*
X38502Y-36931D01*
X38534Y-36896D01*
X38580Y-36848D01*
X38635Y-36792D01*
X38653Y-36775D01*
X38714Y-36715D01*
X38756Y-36676D01*
X38783Y-36655D01*
X38796Y-36650D01*
X38796Y-36651D01*
X38815Y-36662D01*
X38855Y-36688D01*
X38909Y-36725D01*
X38973Y-36768D01*
X38977Y-36771D01*
X39040Y-36814D01*
X39092Y-36849D01*
X39130Y-36874D01*
X39146Y-36884D01*
X39149Y-36884D01*
X39174Y-36876D01*
X39219Y-36861D01*
X39274Y-36839D01*
X39332Y-36816D01*
X39385Y-36794D01*
X39425Y-36775D01*
X39444Y-36765D01*
X39444Y-36764D01*
X39451Y-36741D01*
X39462Y-36694D01*
X39475Y-36629D01*
X39490Y-36552D01*
X39492Y-36540D01*
X39506Y-36465D01*
X39518Y-36403D01*
X39527Y-36360D01*
X39532Y-36342D01*
X39542Y-36340D01*
X39579Y-36337D01*
X39635Y-36336D01*
X39703Y-36335D01*
X39774Y-36336D01*
X39843Y-36337D01*
X39903Y-36339D01*
X39945Y-36342D01*
X39963Y-36346D01*
X39964Y-36347D01*
X39970Y-36370D01*
X39980Y-36417D01*
X39994Y-36482D01*
X40009Y-36560D01*
X40011Y-36573D01*
X40025Y-36648D01*
X40038Y-36709D01*
X40047Y-36752D01*
X40052Y-36768D01*
X40058Y-36772D01*
X40089Y-36785D01*
X40139Y-36806D01*
X40202Y-36831D01*
X40346Y-36890D01*
X40522Y-36768D01*
X40539Y-36757D01*
X40602Y-36714D01*
X40655Y-36679D01*
X40691Y-36656D01*
X40706Y-36647D01*
X40707Y-36648D01*
X40725Y-36663D01*
X40760Y-36696D01*
X40808Y-36743D01*
X40863Y-36798D01*
X40904Y-36839D01*
X40953Y-36889D01*
X40984Y-36922D01*
X41001Y-36944D01*
X41007Y-36957D01*
X41005Y-36965D01*
X40994Y-36983D01*
X40968Y-37022D01*
X40932Y-37076D01*
X40889Y-37138D01*
X40853Y-37191D01*
X40815Y-37250D01*
X40790Y-37292D01*
X40781Y-37313D01*
X40783Y-37322D01*
X40796Y-37356D01*
X40817Y-37409D01*
X40843Y-37471D01*
X40905Y-37611D01*
X40997Y-37628D01*
X41052Y-37639D01*
X41130Y-37654D01*
X41204Y-37668D01*
X41320Y-37691D01*
X41324Y-38117D01*
X41306Y-38125D01*
X41289Y-38130D01*
X41246Y-38139D01*
X41185Y-38151D01*
X41112Y-38165D01*
X41051Y-38177D01*
X40988Y-38188D01*
X40944Y-38197D01*
X40924Y-38201D01*
X40919Y-38208D01*
X40903Y-38238D01*
X40881Y-38286D01*
X40857Y-38344D01*
X40832Y-38403D01*
X40810Y-38458D01*
X40794Y-38500D01*
X40789Y-38522D01*
X40797Y-38539D01*
X40821Y-38575D01*
X40855Y-38627D01*
X40897Y-38689D01*
X40940Y-38751D01*
X40975Y-38804D01*
X41000Y-38842D01*
X41010Y-38859D01*
X41005Y-38871D01*
X40981Y-38901D01*
X40934Y-38949D01*
X40865Y-39018D01*
X40853Y-39029D01*
X40798Y-39082D01*
X40751Y-39125D01*
X40719Y-39154D01*
X40704Y-39164D01*
X40704Y-39164D01*
G37*
M02*
