G04 (created by PCBNEW (2013-may-18)-stable) date Sat 11 Jan 2014 03:04:39 PM CET*
%MOIN*%
G04 Gerber Fmt 3.4, Leading zero omitted, Abs format*
%FSLAX34Y34*%
G01*
G70*
G90*
G04 APERTURE LIST*
%ADD10C,0.00590551*%
%ADD11R,0.0906X0.0197*%
%ADD12R,0.0984X0.0787*%
%ADD13C,0.0354*%
%ADD14R,0.0177X0.0787*%
%ADD15R,0.0787X0.0177*%
%ADD16R,0.045X0.02*%
%ADD17R,0.08X0.06*%
%ADD18R,0.06X0.08*%
%ADD19R,0.035X0.055*%
%ADD20R,0.055X0.035*%
%ADD21R,0.045X0.025*%
%ADD22R,0.025X0.045*%
%ADD23R,0.114173X0.212598*%
%ADD24R,0.212598X0.114173*%
%ADD25R,0.06X0.06*%
%ADD26R,0.42X0.35*%
%ADD27R,0.07X0.09*%
%ADD28R,0.0315X0.0394*%
%ADD29R,0.0394X0.0315*%
%ADD30R,0.144X0.08*%
%ADD31R,0.04X0.08*%
%ADD32R,0.220472X0.0826772*%
%ADD33R,0.063X0.1024*%
%ADD34R,0.0945X0.1575*%
%ADD35R,0.1417X0.063*%
G04 APERTURE END LIST*
G54D10*
G54D11*
X13858Y-40370D03*
X13858Y-40685D03*
X13858Y-41000D03*
X13858Y-41315D03*
X13858Y-41630D03*
G54D12*
X13819Y-39248D03*
X11654Y-39248D03*
X13819Y-42752D03*
X11654Y-42752D03*
G54D13*
X12835Y-40134D03*
X12835Y-41866D03*
G54D14*
X21093Y-42896D03*
X20778Y-42896D03*
X20463Y-42896D03*
X20148Y-42896D03*
X19833Y-42896D03*
X19518Y-42896D03*
X19203Y-42896D03*
X18888Y-42896D03*
X18890Y-39130D03*
X21100Y-39130D03*
X20780Y-39130D03*
X20460Y-39130D03*
X20150Y-39130D03*
X19830Y-39130D03*
X19520Y-39130D03*
X19200Y-39130D03*
G54D15*
X18100Y-42112D03*
X18100Y-41798D03*
X18100Y-41482D03*
X18100Y-41168D03*
X18100Y-40852D03*
X18100Y-40538D03*
X18100Y-40222D03*
X18100Y-39908D03*
X21880Y-42110D03*
X21880Y-41800D03*
X21880Y-41480D03*
X21880Y-41170D03*
X21880Y-40860D03*
X21880Y-40540D03*
X21880Y-40220D03*
X21880Y-39900D03*
G54D16*
X37750Y-45750D03*
X37750Y-45250D03*
X37750Y-44750D03*
X37750Y-44250D03*
X40250Y-44250D03*
X40250Y-44750D03*
X40250Y-45250D03*
X40250Y-45750D03*
G54D17*
X35250Y-38150D03*
X35250Y-36850D03*
G54D18*
X30850Y-46500D03*
X32150Y-46500D03*
X39550Y-43300D03*
X38250Y-43300D03*
X35650Y-46500D03*
X34350Y-46500D03*
G54D19*
X17125Y-40000D03*
X16375Y-40000D03*
G54D20*
X19500Y-37375D03*
X19500Y-36625D03*
G54D21*
X36500Y-45300D03*
X36500Y-44700D03*
X35500Y-45300D03*
X35500Y-44700D03*
G54D22*
X23550Y-42000D03*
X22950Y-42000D03*
X44800Y-38500D03*
X44200Y-38500D03*
X15800Y-41500D03*
X15200Y-41500D03*
X43550Y-38500D03*
X42950Y-38500D03*
G54D21*
X23750Y-42950D03*
X23750Y-43550D03*
G54D22*
X15200Y-40500D03*
X15800Y-40500D03*
X18700Y-47000D03*
X19300Y-47000D03*
X21300Y-47000D03*
X20700Y-47000D03*
G54D21*
X15750Y-45700D03*
X15750Y-46300D03*
G54D22*
X17200Y-43000D03*
X17800Y-43000D03*
G54D21*
X22250Y-42950D03*
X22250Y-43550D03*
X42500Y-45200D03*
X42500Y-45800D03*
X41500Y-45800D03*
X41500Y-45200D03*
X23000Y-43550D03*
X23000Y-42950D03*
G54D23*
X28948Y-44500D03*
X25051Y-44500D03*
G54D24*
X39000Y-36551D03*
X39000Y-40448D03*
G54D25*
X12875Y-45125D03*
G54D26*
X27000Y-37550D03*
G54D27*
X27000Y-41000D03*
X26000Y-41000D03*
X28000Y-41000D03*
G54D25*
X11375Y-46125D03*
X45500Y-44500D03*
X21500Y-35500D03*
X14375Y-47125D03*
X20000Y-35500D03*
X12875Y-46125D03*
X11375Y-45125D03*
X12875Y-47125D03*
X14375Y-45125D03*
X11375Y-47125D03*
X14375Y-46125D03*
X45500Y-46000D03*
X45500Y-40500D03*
X45500Y-42000D03*
G54D28*
X43000Y-37433D03*
X42625Y-36567D03*
X43375Y-36567D03*
G54D29*
X44567Y-37000D03*
X45433Y-36625D03*
X45433Y-37375D03*
G54D28*
X43000Y-40683D03*
X42625Y-39817D03*
X43375Y-39817D03*
G54D30*
X17000Y-38300D03*
G54D31*
X17000Y-35700D03*
X16100Y-35700D03*
X17900Y-35700D03*
G54D32*
X18326Y-45000D03*
X21673Y-45000D03*
G54D33*
X35500Y-41291D03*
X35500Y-42709D03*
G54D34*
X32000Y-40075D03*
X32000Y-36925D03*
G54D35*
X30917Y-44500D03*
X33083Y-44500D03*
X14083Y-36500D03*
X11917Y-36500D03*
G54D21*
X42000Y-38450D03*
X42000Y-39050D03*
M02*
