G04 (created by PCBNEW (2013-may-18)-stable) date Sat 11 Jan 2014 02:32:35 PM CET*
%MOIN*%
G04 Gerber Fmt 3.4, Leading zero omitted, Abs format*
%FSLAX34Y34*%
G01*
G70*
G90*
G04 APERTURE LIST*
%ADD10C,0.00590551*%
%ADD11R,0.0906X0.0197*%
%ADD12R,0.0984X0.0787*%
%ADD13R,0.0177X0.0787*%
%ADD14R,0.0787X0.0177*%
%ADD15R,0.045X0.02*%
%ADD16R,0.08X0.06*%
%ADD17R,0.06X0.08*%
%ADD18R,0.035X0.055*%
%ADD19R,0.055X0.035*%
%ADD20R,0.045X0.025*%
%ADD21R,0.025X0.045*%
%ADD22R,0.114173X0.212598*%
%ADD23R,0.212598X0.114173*%
%ADD24R,0.06X0.06*%
%ADD25R,0.42X0.35*%
%ADD26R,0.07X0.09*%
%ADD27R,0.0315X0.0394*%
%ADD28R,0.0394X0.0315*%
%ADD29R,0.144X0.08*%
%ADD30R,0.04X0.08*%
%ADD31R,0.220472X0.0826772*%
%ADD32R,0.063X0.1024*%
%ADD33R,0.0945X0.1575*%
%ADD34R,0.1417X0.063*%
%ADD35C,0.035*%
%ADD36C,0.032*%
%ADD37C,0.016*%
%ADD38C,0.01*%
G04 APERTURE END LIST*
G54D10*
G54D11*
X13858Y-40370D03*
X13858Y-40685D03*
X13858Y-41000D03*
X13858Y-41315D03*
X13858Y-41630D03*
G54D12*
X13819Y-39248D03*
X11654Y-39248D03*
X13819Y-42752D03*
X11654Y-42752D03*
G54D13*
X21093Y-42896D03*
X20778Y-42896D03*
X20463Y-42896D03*
X20148Y-42896D03*
X19833Y-42896D03*
X19518Y-42896D03*
X19203Y-42896D03*
X18888Y-42896D03*
X18890Y-39130D03*
X21100Y-39130D03*
X20780Y-39130D03*
X20460Y-39130D03*
X20150Y-39130D03*
X19830Y-39130D03*
X19520Y-39130D03*
X19200Y-39130D03*
G54D14*
X18100Y-42112D03*
X18100Y-41798D03*
X18100Y-41482D03*
X18100Y-41168D03*
X18100Y-40852D03*
X18100Y-40538D03*
X18100Y-40222D03*
X18100Y-39908D03*
X21880Y-42110D03*
X21880Y-41800D03*
X21880Y-41480D03*
X21880Y-41170D03*
X21880Y-40860D03*
X21880Y-40540D03*
X21880Y-40220D03*
X21880Y-39900D03*
G54D15*
X37750Y-45750D03*
X37750Y-45250D03*
X37750Y-44750D03*
X37750Y-44250D03*
X40250Y-44250D03*
X40250Y-44750D03*
X40250Y-45250D03*
X40250Y-45750D03*
G54D16*
X35250Y-38150D03*
X35250Y-36850D03*
G54D17*
X30850Y-46500D03*
X32150Y-46500D03*
X39550Y-43300D03*
X38250Y-43300D03*
X35650Y-46500D03*
X34350Y-46500D03*
G54D18*
X17125Y-40000D03*
X16375Y-40000D03*
G54D19*
X19500Y-37375D03*
X19500Y-36625D03*
G54D20*
X36500Y-45300D03*
X36500Y-44700D03*
X35500Y-45300D03*
X35500Y-44700D03*
G54D21*
X23550Y-42000D03*
X22950Y-42000D03*
X44800Y-38500D03*
X44200Y-38500D03*
X15800Y-41500D03*
X15200Y-41500D03*
X43550Y-38500D03*
X42950Y-38500D03*
G54D20*
X23750Y-42950D03*
X23750Y-43550D03*
G54D21*
X15200Y-40500D03*
X15800Y-40500D03*
X18700Y-47000D03*
X19300Y-47000D03*
X21300Y-47000D03*
X20700Y-47000D03*
G54D20*
X15750Y-45700D03*
X15750Y-46300D03*
G54D21*
X17200Y-43000D03*
X17800Y-43000D03*
G54D20*
X22250Y-42950D03*
X22250Y-43550D03*
X42500Y-45200D03*
X42500Y-45800D03*
X41500Y-45800D03*
X41500Y-45200D03*
X23000Y-43550D03*
X23000Y-42950D03*
G54D22*
X28948Y-44500D03*
X25051Y-44500D03*
G54D23*
X39000Y-36551D03*
X39000Y-40448D03*
G54D24*
X12875Y-45125D03*
G54D25*
X27000Y-37550D03*
G54D26*
X27000Y-41000D03*
X26000Y-41000D03*
X28000Y-41000D03*
G54D24*
X11375Y-46125D03*
X45500Y-44500D03*
X21500Y-35500D03*
X14375Y-47125D03*
X20000Y-35500D03*
X12875Y-46125D03*
X11375Y-45125D03*
X12875Y-47125D03*
X14375Y-45125D03*
X11375Y-47125D03*
X14375Y-46125D03*
X45500Y-46000D03*
X45500Y-40500D03*
X45500Y-42000D03*
G54D27*
X43000Y-37433D03*
X42625Y-36567D03*
X43375Y-36567D03*
G54D28*
X44567Y-37000D03*
X45433Y-36625D03*
X45433Y-37375D03*
G54D27*
X43000Y-40683D03*
X42625Y-39817D03*
X43375Y-39817D03*
G54D29*
X17000Y-38300D03*
G54D30*
X17000Y-35700D03*
X16100Y-35700D03*
X17900Y-35700D03*
G54D31*
X18326Y-45000D03*
X21673Y-45000D03*
G54D32*
X35500Y-41291D03*
X35500Y-42709D03*
G54D33*
X32000Y-40075D03*
X32000Y-36925D03*
G54D34*
X30917Y-44500D03*
X33083Y-44500D03*
X14083Y-36500D03*
X11917Y-36500D03*
G54D20*
X42000Y-38450D03*
X42000Y-39050D03*
G54D35*
X30500Y-41000D03*
X33250Y-41750D03*
X43750Y-37750D03*
X14750Y-35500D03*
X37000Y-45750D03*
X20000Y-41500D03*
X18750Y-37750D03*
X23250Y-38250D03*
X42000Y-37750D03*
X20750Y-41000D03*
X22750Y-41000D03*
X39100Y-44000D03*
X19500Y-40000D03*
X15250Y-39750D03*
X15250Y-42250D03*
X22250Y-37250D03*
X34500Y-44000D03*
X18250Y-42750D03*
X19000Y-41000D03*
X24500Y-42000D03*
X38500Y-45250D03*
X23250Y-44000D03*
X41000Y-46000D03*
X16500Y-42000D03*
X17000Y-41000D03*
G54D36*
X31425Y-40075D02*
X32000Y-40075D01*
X30500Y-41000D02*
X31425Y-40075D01*
X43433Y-37433D02*
X43000Y-37433D01*
X32000Y-40075D02*
X32000Y-40500D01*
X33250Y-41750D02*
X32000Y-40500D01*
X43433Y-37433D02*
X43750Y-37750D01*
X28948Y-44500D02*
X28948Y-44051D01*
X28948Y-44051D02*
X32000Y-41000D01*
X32000Y-41000D02*
X32000Y-40075D01*
X15000Y-35750D02*
X15000Y-35700D01*
X14950Y-35700D02*
X15000Y-35750D01*
X14750Y-35500D02*
X14950Y-35700D01*
X16100Y-35700D02*
X15000Y-35700D01*
X15000Y-35700D02*
X14883Y-35700D01*
X14883Y-35700D02*
X14083Y-36500D01*
X43000Y-37433D02*
X43000Y-38450D01*
X43000Y-38450D02*
X42950Y-38500D01*
X43000Y-37433D02*
X44134Y-37433D01*
X44134Y-37433D02*
X44567Y-37000D01*
G54D37*
X37750Y-45750D02*
X37000Y-45750D01*
X18750Y-37375D02*
X18750Y-37750D01*
X19750Y-41750D02*
X19750Y-42000D01*
X20000Y-41500D02*
X19750Y-41750D01*
X18100Y-41798D02*
X19548Y-41798D01*
X19548Y-41798D02*
X19750Y-42000D01*
X19833Y-42083D02*
X19833Y-42896D01*
X19750Y-42000D02*
X19833Y-42083D01*
X14375Y-45125D02*
X15750Y-45125D01*
X15750Y-45125D02*
X15750Y-45000D01*
X17200Y-43000D02*
X17200Y-43550D01*
X17200Y-43550D02*
X15750Y-45000D01*
X15750Y-45000D02*
X15750Y-45700D01*
X17200Y-43000D02*
X17200Y-42300D01*
X17388Y-42112D02*
X18100Y-42112D01*
X17200Y-42300D02*
X17388Y-42112D01*
X18100Y-41798D02*
X18100Y-42112D01*
X17000Y-35700D02*
X17000Y-36500D01*
X17875Y-37375D02*
X18750Y-37375D01*
X18750Y-37375D02*
X19500Y-37375D01*
X17000Y-36500D02*
X17875Y-37375D01*
X14375Y-45125D02*
X12875Y-45125D01*
X12875Y-45125D02*
X11375Y-45125D01*
X22950Y-42000D02*
X22950Y-42150D01*
X22950Y-42150D02*
X23750Y-42950D01*
X21880Y-41800D02*
X22750Y-41800D01*
X22750Y-41800D02*
X22950Y-42000D01*
X20778Y-42896D02*
X20778Y-43528D01*
X22050Y-42950D02*
X22250Y-42950D01*
X21250Y-43750D02*
X22050Y-42950D01*
X21000Y-43750D02*
X21250Y-43750D01*
X20778Y-43528D02*
X21000Y-43750D01*
X22250Y-42950D02*
X23000Y-42950D01*
X42000Y-38450D02*
X42000Y-37750D01*
X19500Y-38250D02*
X23250Y-38250D01*
X19200Y-38550D02*
X19500Y-38250D01*
X19200Y-38550D02*
X19200Y-39130D01*
X18100Y-39908D02*
X18658Y-39908D01*
X19750Y-41000D02*
X20750Y-41000D01*
X18658Y-39908D02*
X19750Y-41000D01*
X26000Y-41000D02*
X22750Y-41000D01*
G54D36*
X39100Y-44000D02*
X39550Y-43550D01*
X39550Y-43550D02*
X39550Y-43300D01*
X39550Y-43300D02*
X39550Y-43550D01*
X38850Y-44250D02*
X37750Y-44250D01*
X39550Y-43550D02*
X38850Y-44250D01*
X39000Y-40448D02*
X39848Y-40448D01*
X44800Y-40500D02*
X45500Y-40500D01*
X43900Y-41400D02*
X44800Y-40500D01*
X40800Y-41400D02*
X43900Y-41400D01*
X39848Y-40448D02*
X40800Y-41400D01*
X35500Y-41291D02*
X38157Y-41291D01*
X38157Y-41291D02*
X39000Y-40448D01*
X35650Y-46500D02*
X35650Y-46650D01*
X45000Y-44500D02*
X45500Y-44500D01*
X42750Y-46750D02*
X45000Y-44500D01*
X35750Y-46750D02*
X42750Y-46750D01*
X35650Y-46650D02*
X35750Y-46750D01*
X35650Y-46500D02*
X35650Y-46350D01*
X35650Y-46350D02*
X35750Y-46250D01*
X35750Y-46250D02*
X38750Y-46250D01*
X38750Y-46250D02*
X39250Y-45750D01*
X39250Y-45750D02*
X39250Y-45000D01*
X39250Y-45000D02*
X39500Y-44750D01*
X39500Y-44750D02*
X40250Y-44750D01*
X33150Y-47500D02*
X32150Y-46500D01*
X43000Y-47500D02*
X33150Y-47500D01*
X44500Y-46000D02*
X43000Y-47500D01*
X45500Y-46000D02*
X44500Y-46000D01*
X32150Y-46500D02*
X32150Y-45733D01*
X32150Y-45733D02*
X30917Y-44500D01*
G54D37*
X19520Y-39980D02*
X19500Y-40000D01*
X19520Y-39980D02*
X19520Y-39130D01*
X12875Y-46125D02*
X11375Y-46125D01*
X14375Y-46125D02*
X12875Y-46125D01*
X18700Y-47000D02*
X18700Y-45373D01*
X18700Y-45373D02*
X18326Y-45000D01*
X18888Y-42896D02*
X18888Y-44438D01*
X18888Y-44438D02*
X18326Y-45000D01*
X21300Y-47000D02*
X21300Y-45373D01*
X21300Y-45373D02*
X21673Y-45000D01*
X21673Y-45000D02*
X20250Y-45000D01*
X19203Y-43953D02*
X19203Y-42896D01*
X20250Y-45000D02*
X19203Y-43953D01*
G54D36*
X20000Y-35500D02*
X20000Y-35900D01*
X20000Y-35900D02*
X20200Y-36100D01*
X20200Y-36100D02*
X20200Y-37700D01*
X20200Y-37700D02*
X20000Y-37900D01*
X20000Y-37900D02*
X19350Y-37900D01*
X19350Y-37900D02*
X19250Y-38000D01*
X19250Y-38000D02*
X19000Y-38250D01*
X19000Y-38250D02*
X18750Y-38250D01*
X18750Y-38250D02*
X17750Y-39250D01*
X17750Y-39250D02*
X16750Y-39250D01*
X16750Y-39250D02*
X16375Y-39625D01*
X16375Y-39625D02*
X16375Y-40000D01*
X40250Y-44250D02*
X40250Y-42750D01*
X35000Y-43500D02*
X34500Y-44000D01*
X36400Y-43500D02*
X35000Y-43500D01*
X37400Y-42500D02*
X36400Y-43500D01*
X40000Y-42500D02*
X37400Y-42500D01*
X40250Y-42750D02*
X40000Y-42500D01*
X34500Y-44000D02*
X37100Y-44000D01*
X37100Y-44000D02*
X37800Y-43300D01*
X37800Y-43300D02*
X38250Y-43300D01*
X13858Y-41630D02*
X14130Y-41630D01*
X14750Y-42250D02*
X15250Y-42250D01*
X14130Y-41630D02*
X14750Y-42250D01*
X34500Y-44000D02*
X34500Y-43000D01*
X34500Y-43000D02*
X34791Y-42709D01*
X34791Y-42709D02*
X35500Y-42709D01*
X34350Y-46500D02*
X34350Y-45850D01*
X34350Y-45850D02*
X34250Y-45750D01*
X34250Y-45750D02*
X34250Y-44250D01*
X34250Y-44250D02*
X34500Y-44000D01*
X22250Y-43550D02*
X22250Y-44250D01*
X20000Y-44000D02*
X20250Y-44250D01*
X23500Y-44500D02*
X23750Y-44250D01*
X23250Y-44500D02*
X23500Y-44500D01*
X23750Y-43550D02*
X23750Y-44250D01*
G54D37*
X19518Y-43518D02*
X20000Y-44000D01*
X19518Y-43518D02*
X19518Y-42896D01*
X23000Y-44500D02*
X23250Y-44500D01*
X22750Y-44250D02*
X23000Y-44500D01*
G54D36*
X20250Y-44250D02*
X22250Y-44250D01*
X22250Y-44250D02*
X22750Y-44250D01*
X20250Y-35500D02*
X22000Y-37250D01*
X20000Y-35500D02*
X20250Y-35500D01*
X22000Y-37250D02*
X22250Y-37250D01*
X20000Y-35500D02*
X18100Y-35500D01*
X18100Y-35500D02*
X17900Y-35700D01*
G54D37*
X18100Y-40852D02*
X17352Y-40852D01*
G54D38*
X17352Y-40852D02*
X17000Y-40500D01*
G54D37*
X17000Y-40500D02*
X16875Y-40500D01*
X16875Y-40500D02*
X16500Y-40500D01*
G54D36*
X16500Y-40500D02*
X16375Y-40375D01*
X16375Y-40375D02*
X16375Y-40000D01*
X15250Y-39750D02*
X16125Y-39750D01*
X16125Y-39750D02*
X16375Y-40000D01*
X18648Y-40852D02*
X18852Y-40852D01*
X18250Y-42750D02*
X18500Y-42500D01*
X18852Y-40852D02*
X19000Y-41000D01*
X40250Y-44250D02*
X41550Y-44250D01*
X41550Y-44250D02*
X42500Y-45200D01*
X35250Y-38150D02*
X39150Y-38150D01*
X42308Y-39500D02*
X42625Y-39817D01*
X40500Y-39500D02*
X42308Y-39500D01*
X39150Y-38150D02*
X40500Y-39500D01*
X20000Y-47000D02*
X20000Y-47500D01*
X16750Y-46500D02*
X16750Y-45500D01*
X17750Y-47500D02*
X16750Y-46500D01*
X20000Y-47500D02*
X17750Y-47500D01*
X14748Y-39248D02*
X13819Y-39248D01*
X15250Y-39750D02*
X14748Y-39248D01*
G54D37*
X13858Y-41630D02*
X13858Y-41315D01*
X18100Y-40852D02*
X18648Y-40852D01*
G54D36*
X15750Y-46300D02*
X15950Y-46300D01*
X15950Y-46300D02*
X16750Y-45500D01*
X17800Y-43450D02*
X17800Y-43000D01*
X16750Y-44500D02*
X17800Y-43450D01*
X16750Y-45500D02*
X16750Y-44500D01*
G54D37*
X19518Y-42896D02*
X19518Y-42268D01*
X18750Y-42250D02*
X18500Y-42500D01*
X19500Y-42250D02*
X18750Y-42250D01*
X19518Y-42268D02*
X19500Y-42250D01*
G54D36*
X18500Y-42500D02*
X18000Y-43000D01*
X18000Y-43000D02*
X17800Y-43000D01*
X19500Y-36625D02*
X19500Y-36000D01*
X19500Y-36000D02*
X20000Y-35500D01*
X19300Y-47000D02*
X20000Y-47000D01*
X20000Y-47000D02*
X20700Y-47000D01*
X11917Y-36500D02*
X11917Y-37346D01*
X11917Y-37346D02*
X13819Y-39248D01*
X14375Y-47125D02*
X14925Y-47125D01*
X14925Y-47125D02*
X15750Y-46300D01*
X12875Y-47125D02*
X11375Y-47125D01*
X14375Y-47125D02*
X12875Y-47125D01*
X34500Y-44000D02*
X34000Y-43500D01*
X34000Y-38925D02*
X32000Y-36925D01*
X34000Y-43500D02*
X34000Y-38925D01*
X28000Y-41000D02*
X29250Y-41000D01*
X30250Y-38675D02*
X32000Y-36925D01*
X30250Y-40000D02*
X30250Y-38675D01*
X29250Y-41000D02*
X30250Y-40000D01*
X35250Y-38150D02*
X35250Y-39750D01*
X35250Y-39750D02*
X34500Y-40500D01*
X34500Y-40500D02*
X34500Y-41709D01*
X34500Y-41709D02*
X35500Y-42709D01*
X34500Y-44000D02*
X34750Y-44250D01*
X35050Y-45300D02*
X35500Y-45300D01*
X34750Y-45000D02*
X35050Y-45300D01*
X34750Y-44250D02*
X34750Y-45000D01*
X34500Y-44000D02*
X33583Y-44000D01*
X33583Y-44000D02*
X33083Y-44500D01*
G54D37*
X37750Y-45250D02*
X38500Y-45250D01*
X24500Y-42000D02*
X23550Y-42000D01*
X37750Y-45250D02*
X36550Y-45250D01*
X36550Y-45250D02*
X36500Y-45300D01*
X23000Y-43750D02*
X23250Y-44000D01*
X41000Y-46000D02*
X41000Y-45750D01*
X41000Y-45800D02*
X41000Y-45750D01*
X23000Y-43750D02*
X23000Y-43550D01*
X41500Y-45800D02*
X41000Y-45800D01*
X41000Y-45800D02*
X40300Y-45800D01*
X40300Y-45800D02*
X40250Y-45750D01*
X41500Y-45200D02*
X41700Y-45200D01*
X42300Y-45800D02*
X42500Y-45800D01*
X41700Y-45200D02*
X42300Y-45800D01*
X40250Y-45250D02*
X41450Y-45250D01*
X41450Y-45250D02*
X41500Y-45200D01*
X42000Y-39050D02*
X42608Y-39050D01*
X42608Y-39050D02*
X43375Y-39817D01*
X18100Y-41168D02*
X17168Y-41168D01*
X16000Y-41500D02*
X15800Y-41500D01*
X16500Y-42000D02*
X16000Y-41500D01*
X17168Y-41168D02*
X17000Y-41000D01*
X18100Y-41482D02*
X16782Y-41482D01*
X16782Y-41482D02*
X15800Y-40500D01*
X13858Y-41000D02*
X14700Y-41000D01*
X14700Y-41000D02*
X15200Y-41500D01*
X13858Y-40685D02*
X15015Y-40685D01*
X15015Y-40685D02*
X15200Y-40500D01*
X43550Y-38500D02*
X44200Y-38500D01*
X43000Y-40683D02*
X43567Y-40683D01*
X44200Y-40050D02*
X44200Y-38500D01*
X43567Y-40683D02*
X44200Y-40050D01*
X44200Y-38500D02*
X44200Y-38050D01*
X45058Y-37750D02*
X45433Y-37375D01*
X44500Y-37750D02*
X45058Y-37750D01*
X44200Y-38050D02*
X44500Y-37750D01*
X45433Y-36625D02*
X45625Y-36625D01*
X45500Y-38500D02*
X46000Y-38000D01*
X46000Y-38000D02*
X46000Y-37000D01*
X45500Y-38500D02*
X44800Y-38500D01*
X45625Y-36625D02*
X46000Y-37000D01*
X43375Y-36567D02*
X45375Y-36567D01*
X45375Y-36567D02*
X45433Y-36625D01*
G54D36*
X39000Y-36551D02*
X35548Y-36551D01*
X35548Y-36551D02*
X35250Y-36850D01*
X42625Y-36567D02*
X39015Y-36567D01*
X39015Y-36567D02*
X39000Y-36551D01*
G54D37*
X37750Y-44750D02*
X36550Y-44750D01*
X36550Y-44750D02*
X36500Y-44700D01*
X35500Y-44700D02*
X36500Y-44700D01*
G54D36*
X27000Y-41000D02*
X27000Y-37550D01*
X30850Y-46500D02*
X27051Y-46500D01*
X27051Y-46500D02*
X25051Y-44500D01*
X27000Y-41000D02*
X27000Y-42551D01*
X27000Y-42551D02*
X25051Y-44500D01*
G54D37*
X18100Y-40538D02*
X17663Y-40538D01*
X17663Y-40538D02*
X17125Y-40000D01*
M02*
