G04 (created by PCBNEW (2013-may-18)-stable) date Sat 11 Jan 2014 03:04:39 PM CET*
%MOIN*%
G04 Gerber Fmt 3.4, Leading zero omitted, Abs format*
%FSLAX34Y34*%
G01*
G70*
G90*
G04 APERTURE LIST*
%ADD10C,0.00590551*%
%ADD11C,0.015*%
%ADD12C,0.006*%
%ADD13C,0.005*%
%ADD14C,0.0039*%
%ADD15C,0.0031*%
%ADD16C,0.008*%
%ADD17C,0.0043*%
%ADD18C,0.0045*%
%ADD19C,0.0047*%
G04 APERTURE END LIST*
G54D10*
G54D11*
X11083Y-39484D02*
X11083Y-42516D01*
X10689Y-39484D02*
X10689Y-42516D01*
X10689Y-42516D02*
X14311Y-42516D01*
X14311Y-42516D02*
X14311Y-39484D01*
X14311Y-39484D02*
X10689Y-39484D01*
G54D12*
X21090Y-39020D02*
X21090Y-39470D01*
X18910Y-39020D02*
X18910Y-39460D01*
X21090Y-39020D02*
X18910Y-39020D01*
X21560Y-39900D02*
X21990Y-39900D01*
X21570Y-42110D02*
X21990Y-42110D01*
X21990Y-42120D02*
X22000Y-39900D01*
X18020Y-42100D02*
X18010Y-39930D01*
X18710Y-42530D02*
X21540Y-42530D01*
X18020Y-39920D02*
X18430Y-39920D01*
X18470Y-42280D02*
X18470Y-39500D01*
X21550Y-39480D02*
X18510Y-39480D01*
X21550Y-42530D02*
X21550Y-39530D01*
X18880Y-42980D02*
X21100Y-42980D01*
X21100Y-42980D02*
X21100Y-42530D01*
X18700Y-42526D02*
X18470Y-42296D01*
X18880Y-42978D02*
X18880Y-42526D01*
X18470Y-42100D02*
X18018Y-42100D01*
X19062Y-42118D02*
G75*
G03X19062Y-42118I-188J0D01*
G74*
G01*
G54D13*
X38100Y-46000D02*
X38100Y-44000D01*
X38100Y-44000D02*
X39900Y-44000D01*
X39900Y-44000D02*
X39900Y-46000D01*
X39900Y-46000D02*
X38100Y-46000D01*
X38700Y-46000D02*
X38700Y-45800D01*
X38700Y-45800D02*
X39200Y-45800D01*
X39200Y-45800D02*
X39200Y-46000D01*
X34800Y-38500D02*
X35700Y-38500D01*
X35700Y-38500D02*
X35700Y-37850D01*
X34800Y-37150D02*
X34800Y-36500D01*
X34800Y-36500D02*
X35700Y-36500D01*
X35700Y-36500D02*
X35700Y-37150D01*
X34800Y-37850D02*
X34800Y-38500D01*
X30500Y-46050D02*
X30500Y-46950D01*
X30500Y-46950D02*
X31150Y-46950D01*
X31850Y-46050D02*
X32500Y-46050D01*
X32500Y-46050D02*
X32500Y-46950D01*
X32500Y-46950D02*
X31850Y-46950D01*
X31150Y-46050D02*
X30500Y-46050D01*
X39900Y-43750D02*
X39900Y-42850D01*
X39900Y-42850D02*
X39250Y-42850D01*
X38550Y-43750D02*
X37900Y-43750D01*
X37900Y-43750D02*
X37900Y-42850D01*
X37900Y-42850D02*
X38550Y-42850D01*
X39250Y-43750D02*
X39900Y-43750D01*
X36000Y-46950D02*
X36000Y-46050D01*
X36000Y-46050D02*
X35350Y-46050D01*
X34650Y-46950D02*
X34000Y-46950D01*
X34000Y-46950D02*
X34000Y-46050D01*
X34000Y-46050D02*
X34650Y-46050D01*
X35350Y-46950D02*
X36000Y-46950D01*
G54D14*
X17450Y-39700D02*
G75*
G03X17450Y-39700I-50J0D01*
G74*
G01*
X16950Y-39700D02*
X17350Y-39700D01*
X17350Y-39700D02*
X17350Y-40300D01*
X17350Y-40300D02*
X16950Y-40300D01*
X16550Y-40300D02*
X16150Y-40300D01*
X16150Y-40300D02*
X16150Y-39700D01*
X16150Y-39700D02*
X16550Y-39700D01*
X19850Y-37650D02*
G75*
G03X19850Y-37650I-50J0D01*
G74*
G01*
X19800Y-37200D02*
X19800Y-37600D01*
X19800Y-37600D02*
X19200Y-37600D01*
X19200Y-37600D02*
X19200Y-37200D01*
X19200Y-36800D02*
X19200Y-36400D01*
X19200Y-36400D02*
X19800Y-36400D01*
X19800Y-36400D02*
X19800Y-36800D01*
G54D13*
X36250Y-45450D02*
X36250Y-44550D01*
X36250Y-44550D02*
X36750Y-44550D01*
X36750Y-44550D02*
X36750Y-45450D01*
X36750Y-45450D02*
X36250Y-45450D01*
X35250Y-45450D02*
X35250Y-44550D01*
X35250Y-44550D02*
X35750Y-44550D01*
X35750Y-44550D02*
X35750Y-45450D01*
X35750Y-45450D02*
X35250Y-45450D01*
X23700Y-42250D02*
X22800Y-42250D01*
X22800Y-42250D02*
X22800Y-41750D01*
X22800Y-41750D02*
X23700Y-41750D01*
X23700Y-41750D02*
X23700Y-42250D01*
X44950Y-38750D02*
X44050Y-38750D01*
X44050Y-38750D02*
X44050Y-38250D01*
X44050Y-38250D02*
X44950Y-38250D01*
X44950Y-38250D02*
X44950Y-38750D01*
X15950Y-41750D02*
X15050Y-41750D01*
X15050Y-41750D02*
X15050Y-41250D01*
X15050Y-41250D02*
X15950Y-41250D01*
X15950Y-41250D02*
X15950Y-41750D01*
X43700Y-38750D02*
X42800Y-38750D01*
X42800Y-38750D02*
X42800Y-38250D01*
X42800Y-38250D02*
X43700Y-38250D01*
X43700Y-38250D02*
X43700Y-38750D01*
X24000Y-42800D02*
X24000Y-43700D01*
X24000Y-43700D02*
X23500Y-43700D01*
X23500Y-43700D02*
X23500Y-42800D01*
X23500Y-42800D02*
X24000Y-42800D01*
X15050Y-40250D02*
X15950Y-40250D01*
X15950Y-40250D02*
X15950Y-40750D01*
X15950Y-40750D02*
X15050Y-40750D01*
X15050Y-40750D02*
X15050Y-40250D01*
X18550Y-46750D02*
X19450Y-46750D01*
X19450Y-46750D02*
X19450Y-47250D01*
X19450Y-47250D02*
X18550Y-47250D01*
X18550Y-47250D02*
X18550Y-46750D01*
X21450Y-47250D02*
X20550Y-47250D01*
X20550Y-47250D02*
X20550Y-46750D01*
X20550Y-46750D02*
X21450Y-46750D01*
X21450Y-46750D02*
X21450Y-47250D01*
X16000Y-45550D02*
X16000Y-46450D01*
X16000Y-46450D02*
X15500Y-46450D01*
X15500Y-46450D02*
X15500Y-45550D01*
X15500Y-45550D02*
X16000Y-45550D01*
X17050Y-42750D02*
X17950Y-42750D01*
X17950Y-42750D02*
X17950Y-43250D01*
X17950Y-43250D02*
X17050Y-43250D01*
X17050Y-43250D02*
X17050Y-42750D01*
X22500Y-42800D02*
X22500Y-43700D01*
X22500Y-43700D02*
X22000Y-43700D01*
X22000Y-43700D02*
X22000Y-42800D01*
X22000Y-42800D02*
X22500Y-42800D01*
X42750Y-45050D02*
X42750Y-45950D01*
X42750Y-45950D02*
X42250Y-45950D01*
X42250Y-45950D02*
X42250Y-45050D01*
X42250Y-45050D02*
X42750Y-45050D01*
X41250Y-45950D02*
X41250Y-45050D01*
X41250Y-45050D02*
X41750Y-45050D01*
X41750Y-45050D02*
X41750Y-45950D01*
X41750Y-45950D02*
X41250Y-45950D01*
X22750Y-43700D02*
X22750Y-42800D01*
X22750Y-42800D02*
X23250Y-42800D01*
X23250Y-42800D02*
X23250Y-43700D01*
X23250Y-43700D02*
X22750Y-43700D01*
G54D10*
X29362Y-44500D02*
X29362Y-46862D01*
X29362Y-46862D02*
X24637Y-46862D01*
X24637Y-46862D02*
X24637Y-42137D01*
X24637Y-42137D02*
X29362Y-42137D01*
X29362Y-42137D02*
X29362Y-44500D01*
X39000Y-36137D02*
X41362Y-36137D01*
X41362Y-36137D02*
X41362Y-40862D01*
X41362Y-40862D02*
X36637Y-40862D01*
X36637Y-40862D02*
X36637Y-36137D01*
X36637Y-36137D02*
X39000Y-36137D01*
G54D12*
X12375Y-45625D02*
X12375Y-44625D01*
X13375Y-44625D02*
X13375Y-45625D01*
X12375Y-44625D02*
X13375Y-44625D01*
X13375Y-45625D02*
X12375Y-45625D01*
G54D13*
X27600Y-40050D02*
X27600Y-41500D01*
X27600Y-41500D02*
X28400Y-41500D01*
X28400Y-41500D02*
X28400Y-40050D01*
X26600Y-40050D02*
X26600Y-41500D01*
X26600Y-41500D02*
X27400Y-41500D01*
X27400Y-41500D02*
X27400Y-40050D01*
X25600Y-40050D02*
X25600Y-41500D01*
X25600Y-41500D02*
X26400Y-41500D01*
X26400Y-41500D02*
X26400Y-40050D01*
X24900Y-40050D02*
X29100Y-40050D01*
X29100Y-40050D02*
X29100Y-36050D01*
X29100Y-36050D02*
X24900Y-36050D01*
X24900Y-36050D02*
X24900Y-40050D01*
G54D12*
X10875Y-46625D02*
X10875Y-45625D01*
X11875Y-45625D02*
X11875Y-46625D01*
X10875Y-45625D02*
X11875Y-45625D01*
X11875Y-46625D02*
X10875Y-46625D01*
X46000Y-45000D02*
X45000Y-45000D01*
X45000Y-44000D02*
X46000Y-44000D01*
X45000Y-45000D02*
X45000Y-44000D01*
X46000Y-44000D02*
X46000Y-45000D01*
X22000Y-36000D02*
X21000Y-36000D01*
X21000Y-35000D02*
X22000Y-35000D01*
X21000Y-36000D02*
X21000Y-35000D01*
X22000Y-35000D02*
X22000Y-36000D01*
X13875Y-47625D02*
X13875Y-46625D01*
X14875Y-46625D02*
X14875Y-47625D01*
X13875Y-46625D02*
X14875Y-46625D01*
X14875Y-47625D02*
X13875Y-47625D01*
X20500Y-36000D02*
X19500Y-36000D01*
X19500Y-35000D02*
X20500Y-35000D01*
X19500Y-36000D02*
X19500Y-35000D01*
X20500Y-35000D02*
X20500Y-36000D01*
X12375Y-46625D02*
X12375Y-45625D01*
X13375Y-45625D02*
X13375Y-46625D01*
X12375Y-45625D02*
X13375Y-45625D01*
X13375Y-46625D02*
X12375Y-46625D01*
X10875Y-45625D02*
X10875Y-44625D01*
X11875Y-44625D02*
X11875Y-45625D01*
X10875Y-44625D02*
X11875Y-44625D01*
X11875Y-45625D02*
X10875Y-45625D01*
X12375Y-47625D02*
X12375Y-46625D01*
X13375Y-46625D02*
X13375Y-47625D01*
X12375Y-46625D02*
X13375Y-46625D01*
X13375Y-47625D02*
X12375Y-47625D01*
X13875Y-45625D02*
X13875Y-44625D01*
X14875Y-44625D02*
X14875Y-45625D01*
X13875Y-44625D02*
X14875Y-44625D01*
X14875Y-45625D02*
X13875Y-45625D01*
X10875Y-47625D02*
X10875Y-46625D01*
X11875Y-46625D02*
X11875Y-47625D01*
X10875Y-46625D02*
X11875Y-46625D01*
X11875Y-47625D02*
X10875Y-47625D01*
X13875Y-46625D02*
X13875Y-45625D01*
X14875Y-45625D02*
X14875Y-46625D01*
X13875Y-45625D02*
X14875Y-45625D01*
X14875Y-46625D02*
X13875Y-46625D01*
X46000Y-46500D02*
X45000Y-46500D01*
X45000Y-45500D02*
X46000Y-45500D01*
X45000Y-46500D02*
X45000Y-45500D01*
X46000Y-45500D02*
X46000Y-46500D01*
X46000Y-41000D02*
X45000Y-41000D01*
X45000Y-40000D02*
X46000Y-40000D01*
X45000Y-41000D02*
X45000Y-40000D01*
X46000Y-40000D02*
X46000Y-41000D01*
X46000Y-42500D02*
X45000Y-42500D01*
X45000Y-41500D02*
X46000Y-41500D01*
X45000Y-42500D02*
X45000Y-41500D01*
X46000Y-41500D02*
X46000Y-42500D01*
G54D15*
X43525Y-36862D02*
G75*
G03X43525Y-36862I-62J0D01*
G74*
G01*
X42500Y-37200D02*
X42500Y-36800D01*
X43525Y-37200D02*
X43525Y-36800D01*
X42500Y-36800D02*
X43525Y-36800D01*
X43525Y-37200D02*
X42500Y-37200D01*
X45200Y-37463D02*
G75*
G03X45200Y-37463I-62J0D01*
G74*
G01*
X44800Y-36500D02*
X45200Y-36500D01*
X44800Y-37525D02*
X45200Y-37525D01*
X45200Y-36500D02*
X45200Y-37525D01*
X44800Y-37525D02*
X44800Y-36500D01*
X43525Y-40112D02*
G75*
G03X43525Y-40112I-62J0D01*
G74*
G01*
X42500Y-40450D02*
X42500Y-40050D01*
X43525Y-40450D02*
X43525Y-40050D01*
X42500Y-40050D02*
X43525Y-40050D01*
X43525Y-40450D02*
X42500Y-40450D01*
G54D16*
X18400Y-36400D02*
X18400Y-35200D01*
X18400Y-35200D02*
X15600Y-35200D01*
X15600Y-35200D02*
X15600Y-36400D01*
X18400Y-37600D02*
X18400Y-37900D01*
X18400Y-37900D02*
X17800Y-38800D01*
X17800Y-38800D02*
X16200Y-38800D01*
X16200Y-38800D02*
X15600Y-37900D01*
X15600Y-37900D02*
X15600Y-37600D01*
G54D10*
X22244Y-45944D02*
X17755Y-45944D01*
X17755Y-45944D02*
X17755Y-44055D01*
X17755Y-44055D02*
X22244Y-44055D01*
X22244Y-44055D02*
X22244Y-45944D01*
G54D13*
X35500Y-41350D02*
X35500Y-41650D01*
X35350Y-41500D02*
X35650Y-41500D01*
X36400Y-41400D02*
X36400Y-42900D01*
X34900Y-41100D02*
X36100Y-41100D01*
X36400Y-41400D02*
X36100Y-41100D01*
X34600Y-41400D02*
X34600Y-42900D01*
X34600Y-41400D02*
X34900Y-41100D01*
X35550Y-42800D02*
X35450Y-42800D01*
X35250Y-42750D02*
X35750Y-42750D01*
X35850Y-42700D02*
X35150Y-42700D01*
X35950Y-42650D02*
X35050Y-42650D01*
X35000Y-42600D02*
X36000Y-42600D01*
X36050Y-42550D02*
X34950Y-42550D01*
X34900Y-42500D02*
X36100Y-42500D01*
X34850Y-42450D02*
X36150Y-42450D01*
X36300Y-42000D02*
G75*
G03X36300Y-42000I-800J0D01*
G74*
G01*
X34600Y-42900D02*
X36400Y-42900D01*
X31600Y-36600D02*
X32400Y-36600D01*
X32550Y-36650D02*
X31400Y-36650D01*
X31300Y-36700D02*
X32700Y-36700D01*
X32850Y-36750D02*
X31150Y-36750D01*
X31050Y-36800D02*
X32950Y-36800D01*
X33000Y-36850D02*
X31000Y-36850D01*
X33950Y-38500D02*
G75*
G03X33950Y-38500I-1950J0D01*
G74*
G01*
X34050Y-36450D02*
X29950Y-36450D01*
X29950Y-36450D02*
X29950Y-40250D01*
X29950Y-40250D02*
X30250Y-40550D01*
X30250Y-40550D02*
X33750Y-40550D01*
X33750Y-40550D02*
X34050Y-40250D01*
X34050Y-40250D02*
X34050Y-36450D01*
X32000Y-40300D02*
X32000Y-40000D01*
X32150Y-40150D02*
X31850Y-40150D01*
X33150Y-44800D02*
X33150Y-44200D01*
X33100Y-44050D02*
X33100Y-44950D01*
X33050Y-45050D02*
X33050Y-43950D01*
X33000Y-43850D02*
X33000Y-45150D01*
X32950Y-45200D02*
X32950Y-43800D01*
X33200Y-44500D02*
G75*
G03X33200Y-44500I-1200J0D01*
G74*
G01*
X33300Y-45800D02*
X33300Y-43200D01*
X33300Y-43200D02*
X31000Y-43200D01*
X31000Y-43200D02*
X30700Y-43500D01*
X30700Y-43500D02*
X30700Y-45500D01*
X30700Y-45500D02*
X31000Y-45800D01*
X31000Y-45800D02*
X33300Y-45800D01*
X31150Y-44500D02*
X31450Y-44500D01*
X31300Y-44650D02*
X31300Y-44350D01*
X11850Y-36200D02*
X11850Y-36800D01*
X11900Y-36950D02*
X11900Y-36050D01*
X11950Y-35950D02*
X11950Y-37050D01*
X12000Y-37150D02*
X12000Y-35850D01*
X12050Y-35800D02*
X12050Y-37200D01*
X14200Y-36500D02*
G75*
G03X14200Y-36500I-1200J0D01*
G74*
G01*
X11700Y-35200D02*
X11700Y-37800D01*
X11700Y-37800D02*
X14000Y-37800D01*
X14000Y-37800D02*
X14300Y-37500D01*
X14300Y-37500D02*
X14300Y-35500D01*
X14300Y-35500D02*
X14000Y-35200D01*
X14000Y-35200D02*
X11700Y-35200D01*
X13850Y-36500D02*
X13550Y-36500D01*
X13700Y-36350D02*
X13700Y-36650D01*
X42250Y-38300D02*
X42250Y-39200D01*
X42250Y-39200D02*
X41750Y-39200D01*
X41750Y-39200D02*
X41750Y-38300D01*
X41750Y-38300D02*
X42250Y-38300D01*
G54D16*
X12366Y-43478D02*
X12366Y-43764D01*
X12347Y-43821D01*
X12309Y-43859D01*
X12252Y-43878D01*
X12214Y-43878D01*
X12766Y-43878D02*
X12538Y-43878D01*
X12652Y-43878D02*
X12652Y-43478D01*
X12614Y-43536D01*
X12576Y-43574D01*
X12538Y-43593D01*
X19202Y-41304D02*
X19607Y-41304D01*
X19654Y-41285D01*
X19678Y-41266D01*
X19702Y-41228D01*
X19702Y-41152D01*
X19678Y-41114D01*
X19654Y-41095D01*
X19607Y-41076D01*
X19202Y-41076D01*
X19702Y-40676D02*
X19702Y-40904D01*
X19702Y-40790D02*
X19202Y-40790D01*
X19273Y-40828D01*
X19321Y-40866D01*
X19345Y-40904D01*
X20809Y-42619D02*
X20809Y-42428D01*
X20952Y-42657D02*
X20452Y-42523D01*
X20952Y-42390D01*
X20452Y-42314D02*
X20452Y-42085D01*
X20952Y-42199D02*
X20452Y-42199D01*
X20952Y-41952D02*
X20452Y-41952D01*
X20809Y-41819D01*
X20452Y-41685D01*
X20952Y-41685D01*
X20690Y-41495D02*
X20690Y-41361D01*
X20952Y-41304D02*
X20952Y-41495D01*
X20452Y-41495D01*
X20452Y-41304D01*
X20476Y-40923D02*
X20452Y-40961D01*
X20452Y-41019D01*
X20476Y-41076D01*
X20523Y-41114D01*
X20571Y-41133D01*
X20666Y-41152D01*
X20738Y-41152D01*
X20833Y-41133D01*
X20880Y-41114D01*
X20928Y-41076D01*
X20952Y-41019D01*
X20952Y-40980D01*
X20928Y-40923D01*
X20904Y-40904D01*
X20738Y-40904D01*
X20738Y-40980D01*
X20809Y-40752D02*
X20809Y-40561D01*
X20952Y-40790D02*
X20452Y-40657D01*
X20952Y-40523D01*
X20666Y-40333D02*
X20642Y-40371D01*
X20619Y-40390D01*
X20571Y-40409D01*
X20547Y-40409D01*
X20500Y-40390D01*
X20476Y-40371D01*
X20452Y-40333D01*
X20452Y-40257D01*
X20476Y-40219D01*
X20500Y-40200D01*
X20547Y-40180D01*
X20571Y-40180D01*
X20619Y-40200D01*
X20642Y-40219D01*
X20666Y-40257D01*
X20666Y-40333D01*
X20690Y-40371D01*
X20714Y-40390D01*
X20761Y-40409D01*
X20857Y-40409D01*
X20904Y-40390D01*
X20928Y-40371D01*
X20952Y-40333D01*
X20952Y-40257D01*
X20928Y-40219D01*
X20904Y-40200D01*
X20857Y-40180D01*
X20761Y-40180D01*
X20714Y-40200D01*
X20690Y-40219D01*
X20666Y-40257D01*
X20452Y-40009D02*
X20857Y-40009D01*
X20904Y-39990D01*
X20928Y-39971D01*
X20952Y-39933D01*
X20952Y-39857D01*
X20928Y-39819D01*
X20904Y-39800D01*
X20857Y-39780D01*
X20452Y-39780D01*
X20500Y-39609D02*
X20476Y-39590D01*
X20452Y-39552D01*
X20452Y-39457D01*
X20476Y-39419D01*
X20500Y-39400D01*
X20547Y-39380D01*
X20595Y-39380D01*
X20666Y-39400D01*
X20952Y-39628D01*
X20952Y-39380D01*
G54D13*
X38232Y-45304D02*
X38596Y-45304D01*
X38639Y-45285D01*
X38660Y-45266D01*
X38682Y-45228D01*
X38682Y-45152D01*
X38660Y-45114D01*
X38639Y-45095D01*
X38596Y-45076D01*
X38232Y-45076D01*
X38382Y-44714D02*
X38682Y-44714D01*
X38210Y-44809D02*
X38532Y-44904D01*
X38532Y-44657D01*
X39661Y-46295D02*
X39261Y-46295D01*
X39547Y-46161D01*
X39261Y-46028D01*
X39661Y-46028D01*
X39623Y-45609D02*
X39642Y-45628D01*
X39661Y-45685D01*
X39661Y-45723D01*
X39642Y-45780D01*
X39604Y-45819D01*
X39566Y-45838D01*
X39490Y-45857D01*
X39433Y-45857D01*
X39357Y-45838D01*
X39319Y-45819D01*
X39280Y-45780D01*
X39261Y-45723D01*
X39261Y-45685D01*
X39280Y-45628D01*
X39300Y-45609D01*
X39661Y-45438D02*
X39261Y-45438D01*
X39261Y-45285D01*
X39280Y-45247D01*
X39300Y-45228D01*
X39338Y-45209D01*
X39395Y-45209D01*
X39433Y-45228D01*
X39452Y-45247D01*
X39471Y-45285D01*
X39471Y-45438D01*
X39261Y-44866D02*
X39261Y-44942D01*
X39280Y-44980D01*
X39300Y-44999D01*
X39357Y-45038D01*
X39433Y-45057D01*
X39585Y-45057D01*
X39623Y-45038D01*
X39642Y-45019D01*
X39661Y-44980D01*
X39661Y-44904D01*
X39642Y-44866D01*
X39623Y-44847D01*
X39585Y-44828D01*
X39490Y-44828D01*
X39452Y-44847D01*
X39433Y-44866D01*
X39414Y-44904D01*
X39414Y-44980D01*
X39433Y-45019D01*
X39452Y-45038D01*
X39490Y-45057D01*
X39261Y-44580D02*
X39261Y-44542D01*
X39280Y-44504D01*
X39300Y-44485D01*
X39338Y-44466D01*
X39414Y-44447D01*
X39509Y-44447D01*
X39585Y-44466D01*
X39623Y-44485D01*
X39642Y-44504D01*
X39661Y-44542D01*
X39661Y-44580D01*
X39642Y-44619D01*
X39623Y-44638D01*
X39585Y-44657D01*
X39509Y-44676D01*
X39414Y-44676D01*
X39338Y-44657D01*
X39300Y-44638D01*
X39280Y-44619D01*
X39261Y-44580D01*
X39261Y-44199D02*
X39261Y-44161D01*
X39280Y-44123D01*
X39300Y-44104D01*
X39338Y-44085D01*
X39414Y-44066D01*
X39509Y-44066D01*
X39585Y-44085D01*
X39623Y-44104D01*
X39642Y-44123D01*
X39661Y-44161D01*
X39661Y-44199D01*
X39642Y-44238D01*
X39623Y-44257D01*
X39585Y-44276D01*
X39509Y-44295D01*
X39414Y-44295D01*
X39338Y-44276D01*
X39300Y-44257D01*
X39280Y-44238D01*
X39261Y-44199D01*
X39300Y-43914D02*
X39280Y-43895D01*
X39261Y-43857D01*
X39261Y-43761D01*
X39280Y-43723D01*
X39300Y-43704D01*
X39338Y-43685D01*
X39376Y-43685D01*
X39433Y-43704D01*
X39661Y-43933D01*
X39661Y-43685D01*
X35371Y-37721D02*
X35071Y-37721D01*
X35071Y-37650D01*
X35085Y-37607D01*
X35114Y-37578D01*
X35142Y-37564D01*
X35200Y-37550D01*
X35242Y-37550D01*
X35300Y-37564D01*
X35328Y-37578D01*
X35357Y-37607D01*
X35371Y-37650D01*
X35371Y-37721D01*
X35100Y-37435D02*
X35085Y-37421D01*
X35071Y-37392D01*
X35071Y-37321D01*
X35085Y-37292D01*
X35100Y-37278D01*
X35128Y-37264D01*
X35157Y-37264D01*
X35200Y-37278D01*
X35371Y-37450D01*
X35371Y-37264D01*
X31278Y-46621D02*
X31278Y-46321D01*
X31350Y-46321D01*
X31392Y-46335D01*
X31421Y-46364D01*
X31435Y-46392D01*
X31450Y-46450D01*
X31450Y-46492D01*
X31435Y-46550D01*
X31421Y-46578D01*
X31392Y-46607D01*
X31350Y-46621D01*
X31278Y-46621D01*
X31550Y-46321D02*
X31735Y-46321D01*
X31635Y-46435D01*
X31678Y-46435D01*
X31707Y-46450D01*
X31721Y-46464D01*
X31735Y-46492D01*
X31735Y-46564D01*
X31721Y-46592D01*
X31707Y-46607D01*
X31678Y-46621D01*
X31592Y-46621D01*
X31564Y-46607D01*
X31550Y-46592D01*
X38850Y-43421D02*
X38750Y-43278D01*
X38678Y-43421D02*
X38678Y-43121D01*
X38792Y-43121D01*
X38821Y-43135D01*
X38835Y-43150D01*
X38850Y-43178D01*
X38850Y-43221D01*
X38835Y-43250D01*
X38821Y-43264D01*
X38792Y-43278D01*
X38678Y-43278D01*
X39121Y-43121D02*
X38978Y-43121D01*
X38964Y-43264D01*
X38978Y-43250D01*
X39007Y-43235D01*
X39078Y-43235D01*
X39107Y-43250D01*
X39121Y-43264D01*
X39135Y-43292D01*
X39135Y-43364D01*
X39121Y-43392D01*
X39107Y-43407D01*
X39078Y-43421D01*
X39007Y-43421D01*
X38978Y-43407D01*
X38964Y-43392D01*
X34950Y-46621D02*
X34850Y-46478D01*
X34778Y-46621D02*
X34778Y-46321D01*
X34892Y-46321D01*
X34921Y-46335D01*
X34935Y-46350D01*
X34950Y-46378D01*
X34950Y-46421D01*
X34935Y-46450D01*
X34921Y-46464D01*
X34892Y-46478D01*
X34778Y-46478D01*
X35207Y-46421D02*
X35207Y-46621D01*
X35135Y-46307D02*
X35064Y-46521D01*
X35250Y-46521D01*
G54D17*
X16717Y-40185D02*
X16707Y-40195D01*
X16679Y-40204D01*
X16660Y-40204D01*
X16632Y-40195D01*
X16613Y-40176D01*
X16604Y-40157D01*
X16595Y-40120D01*
X16595Y-40092D01*
X16604Y-40054D01*
X16613Y-40035D01*
X16632Y-40017D01*
X16660Y-40007D01*
X16679Y-40007D01*
X16707Y-40017D01*
X16717Y-40026D01*
X16886Y-40073D02*
X16886Y-40204D01*
X16839Y-39998D02*
X16792Y-40139D01*
X16914Y-40139D01*
X16703Y-39929D02*
X16590Y-39929D01*
X16646Y-39929D02*
X16646Y-39732D01*
X16628Y-39760D01*
X16609Y-39779D01*
X16590Y-39789D01*
X16787Y-39798D02*
X16787Y-39995D01*
X16881Y-39901D02*
X16890Y-39920D01*
X16909Y-39929D01*
X16787Y-39901D02*
X16796Y-39920D01*
X16815Y-39929D01*
X16853Y-39929D01*
X16871Y-39920D01*
X16881Y-39901D01*
X16881Y-39798D01*
X19435Y-37126D02*
X19445Y-37136D01*
X19454Y-37164D01*
X19454Y-37182D01*
X19445Y-37211D01*
X19426Y-37229D01*
X19407Y-37239D01*
X19370Y-37248D01*
X19342Y-37248D01*
X19304Y-37239D01*
X19285Y-37229D01*
X19267Y-37211D01*
X19257Y-37182D01*
X19257Y-37164D01*
X19267Y-37136D01*
X19276Y-37126D01*
X19454Y-36939D02*
X19454Y-37051D01*
X19454Y-36995D02*
X19257Y-36995D01*
X19285Y-37014D01*
X19304Y-37032D01*
X19314Y-37051D01*
X19276Y-36863D02*
X19267Y-36854D01*
X19257Y-36835D01*
X19257Y-36788D01*
X19267Y-36770D01*
X19276Y-36760D01*
X19295Y-36751D01*
X19314Y-36751D01*
X19342Y-36760D01*
X19454Y-36873D01*
X19454Y-36751D01*
X19729Y-37046D02*
X19729Y-37159D01*
X19729Y-37103D02*
X19532Y-37103D01*
X19560Y-37121D01*
X19579Y-37140D01*
X19589Y-37159D01*
X19598Y-36962D02*
X19795Y-36962D01*
X19701Y-36868D02*
X19720Y-36859D01*
X19729Y-36840D01*
X19701Y-36962D02*
X19720Y-36953D01*
X19729Y-36934D01*
X19729Y-36896D01*
X19720Y-36878D01*
X19701Y-36868D01*
X19598Y-36868D01*
G54D18*
X36580Y-45030D02*
X36485Y-45090D01*
X36580Y-45132D02*
X36380Y-45132D01*
X36380Y-45064D01*
X36390Y-45047D01*
X36400Y-45038D01*
X36419Y-45030D01*
X36447Y-45030D01*
X36466Y-45038D01*
X36476Y-45047D01*
X36485Y-45064D01*
X36485Y-45132D01*
X36580Y-44944D02*
X36580Y-44910D01*
X36571Y-44892D01*
X36561Y-44884D01*
X36533Y-44867D01*
X36495Y-44858D01*
X36419Y-44858D01*
X36400Y-44867D01*
X36390Y-44875D01*
X36380Y-44892D01*
X36380Y-44927D01*
X36390Y-44944D01*
X36400Y-44952D01*
X36419Y-44961D01*
X36466Y-44961D01*
X36485Y-44952D01*
X36495Y-44944D01*
X36504Y-44927D01*
X36504Y-44892D01*
X36495Y-44875D01*
X36485Y-44867D01*
X36466Y-44858D01*
X35580Y-45030D02*
X35485Y-45090D01*
X35580Y-45132D02*
X35380Y-45132D01*
X35380Y-45064D01*
X35390Y-45047D01*
X35400Y-45038D01*
X35419Y-45030D01*
X35447Y-45030D01*
X35466Y-45038D01*
X35476Y-45047D01*
X35485Y-45064D01*
X35485Y-45132D01*
X35380Y-44970D02*
X35380Y-44850D01*
X35580Y-44927D01*
X23134Y-42080D02*
X23074Y-41985D01*
X23031Y-42080D02*
X23031Y-41880D01*
X23100Y-41880D01*
X23117Y-41890D01*
X23125Y-41900D01*
X23134Y-41919D01*
X23134Y-41947D01*
X23125Y-41966D01*
X23117Y-41976D01*
X23100Y-41985D01*
X23031Y-41985D01*
X23305Y-42080D02*
X23202Y-42080D01*
X23254Y-42080D02*
X23254Y-41880D01*
X23237Y-41909D01*
X23220Y-41928D01*
X23202Y-41938D01*
X23477Y-42080D02*
X23374Y-42080D01*
X23425Y-42080D02*
X23425Y-41880D01*
X23408Y-41909D01*
X23391Y-41928D01*
X23374Y-41938D01*
X44367Y-38580D02*
X44367Y-38380D01*
X44410Y-38380D01*
X44435Y-38390D01*
X44452Y-38409D01*
X44461Y-38428D01*
X44470Y-38466D01*
X44470Y-38495D01*
X44461Y-38533D01*
X44452Y-38552D01*
X44435Y-38571D01*
X44410Y-38580D01*
X44367Y-38580D01*
X44641Y-38580D02*
X44538Y-38580D01*
X44590Y-38580D02*
X44590Y-38380D01*
X44572Y-38409D01*
X44555Y-38428D01*
X44538Y-38438D01*
X15470Y-41580D02*
X15410Y-41485D01*
X15367Y-41580D02*
X15367Y-41380D01*
X15435Y-41380D01*
X15452Y-41390D01*
X15461Y-41400D01*
X15470Y-41419D01*
X15470Y-41447D01*
X15461Y-41466D01*
X15452Y-41476D01*
X15435Y-41485D01*
X15367Y-41485D01*
X15641Y-41580D02*
X15538Y-41580D01*
X15590Y-41580D02*
X15590Y-41380D01*
X15572Y-41409D01*
X15555Y-41428D01*
X15538Y-41438D01*
X43220Y-38580D02*
X43160Y-38485D01*
X43117Y-38580D02*
X43117Y-38380D01*
X43185Y-38380D01*
X43202Y-38390D01*
X43211Y-38400D01*
X43220Y-38419D01*
X43220Y-38447D01*
X43211Y-38466D01*
X43202Y-38476D01*
X43185Y-38485D01*
X43117Y-38485D01*
X43280Y-38380D02*
X43391Y-38380D01*
X43331Y-38457D01*
X43357Y-38457D01*
X43374Y-38466D01*
X43382Y-38476D01*
X43391Y-38495D01*
X43391Y-38542D01*
X43382Y-38561D01*
X43374Y-38571D01*
X43357Y-38580D01*
X43305Y-38580D01*
X43288Y-38571D01*
X43280Y-38561D01*
X23811Y-43365D02*
X23821Y-43374D01*
X23830Y-43400D01*
X23830Y-43417D01*
X23821Y-43442D01*
X23802Y-43460D01*
X23783Y-43468D01*
X23745Y-43477D01*
X23716Y-43477D01*
X23678Y-43468D01*
X23659Y-43460D01*
X23640Y-43442D01*
X23630Y-43417D01*
X23630Y-43400D01*
X23640Y-43374D01*
X23650Y-43365D01*
X23830Y-43194D02*
X23830Y-43297D01*
X23830Y-43245D02*
X23630Y-43245D01*
X23659Y-43262D01*
X23678Y-43280D01*
X23688Y-43297D01*
X23830Y-43022D02*
X23830Y-43125D01*
X23830Y-43074D02*
X23630Y-43074D01*
X23659Y-43091D01*
X23678Y-43108D01*
X23688Y-43125D01*
X15470Y-40580D02*
X15410Y-40485D01*
X15367Y-40580D02*
X15367Y-40380D01*
X15435Y-40380D01*
X15452Y-40390D01*
X15461Y-40400D01*
X15470Y-40419D01*
X15470Y-40447D01*
X15461Y-40466D01*
X15452Y-40476D01*
X15435Y-40485D01*
X15367Y-40485D01*
X15538Y-40400D02*
X15547Y-40390D01*
X15564Y-40380D01*
X15607Y-40380D01*
X15624Y-40390D01*
X15632Y-40400D01*
X15641Y-40419D01*
X15641Y-40438D01*
X15632Y-40466D01*
X15530Y-40580D01*
X15641Y-40580D01*
X18970Y-47061D02*
X18961Y-47071D01*
X18935Y-47080D01*
X18918Y-47080D01*
X18892Y-47071D01*
X18875Y-47052D01*
X18867Y-47033D01*
X18858Y-46995D01*
X18858Y-46966D01*
X18867Y-46928D01*
X18875Y-46909D01*
X18892Y-46890D01*
X18918Y-46880D01*
X18935Y-46880D01*
X18961Y-46890D01*
X18970Y-46900D01*
X19030Y-46880D02*
X19141Y-46880D01*
X19081Y-46957D01*
X19107Y-46957D01*
X19124Y-46966D01*
X19132Y-46976D01*
X19141Y-46995D01*
X19141Y-47042D01*
X19132Y-47061D01*
X19124Y-47071D01*
X19107Y-47080D01*
X19055Y-47080D01*
X19038Y-47071D01*
X19030Y-47061D01*
X20970Y-47061D02*
X20961Y-47071D01*
X20935Y-47080D01*
X20918Y-47080D01*
X20892Y-47071D01*
X20875Y-47052D01*
X20867Y-47033D01*
X20858Y-46995D01*
X20858Y-46966D01*
X20867Y-46928D01*
X20875Y-46909D01*
X20892Y-46890D01*
X20918Y-46880D01*
X20935Y-46880D01*
X20961Y-46890D01*
X20970Y-46900D01*
X21132Y-46880D02*
X21047Y-46880D01*
X21038Y-46976D01*
X21047Y-46966D01*
X21064Y-46957D01*
X21107Y-46957D01*
X21124Y-46966D01*
X21132Y-46976D01*
X21141Y-46995D01*
X21141Y-47042D01*
X21132Y-47061D01*
X21124Y-47071D01*
X21107Y-47080D01*
X21064Y-47080D01*
X21047Y-47071D01*
X21038Y-47061D01*
X15811Y-46030D02*
X15821Y-46038D01*
X15830Y-46064D01*
X15830Y-46081D01*
X15821Y-46107D01*
X15802Y-46124D01*
X15783Y-46132D01*
X15745Y-46141D01*
X15716Y-46141D01*
X15678Y-46132D01*
X15659Y-46124D01*
X15640Y-46107D01*
X15630Y-46081D01*
X15630Y-46064D01*
X15640Y-46038D01*
X15650Y-46030D01*
X15630Y-45875D02*
X15630Y-45910D01*
X15640Y-45927D01*
X15650Y-45935D01*
X15678Y-45952D01*
X15716Y-45961D01*
X15792Y-45961D01*
X15811Y-45952D01*
X15821Y-45944D01*
X15830Y-45927D01*
X15830Y-45892D01*
X15821Y-45875D01*
X15811Y-45867D01*
X15792Y-45858D01*
X15745Y-45858D01*
X15726Y-45867D01*
X15716Y-45875D01*
X15707Y-45892D01*
X15707Y-45927D01*
X15716Y-45944D01*
X15726Y-45952D01*
X15745Y-45961D01*
X17470Y-43061D02*
X17461Y-43071D01*
X17435Y-43080D01*
X17418Y-43080D01*
X17392Y-43071D01*
X17375Y-43052D01*
X17367Y-43033D01*
X17358Y-42995D01*
X17358Y-42966D01*
X17367Y-42928D01*
X17375Y-42909D01*
X17392Y-42890D01*
X17418Y-42880D01*
X17435Y-42880D01*
X17461Y-42890D01*
X17470Y-42900D01*
X17641Y-43080D02*
X17538Y-43080D01*
X17590Y-43080D02*
X17590Y-42880D01*
X17572Y-42909D01*
X17555Y-42928D01*
X17538Y-42938D01*
X22311Y-43365D02*
X22321Y-43374D01*
X22330Y-43400D01*
X22330Y-43417D01*
X22321Y-43442D01*
X22302Y-43460D01*
X22283Y-43468D01*
X22245Y-43477D01*
X22216Y-43477D01*
X22178Y-43468D01*
X22159Y-43460D01*
X22140Y-43442D01*
X22130Y-43417D01*
X22130Y-43400D01*
X22140Y-43374D01*
X22150Y-43365D01*
X22330Y-43194D02*
X22330Y-43297D01*
X22330Y-43245D02*
X22130Y-43245D01*
X22159Y-43262D01*
X22178Y-43280D01*
X22188Y-43297D01*
X22130Y-43082D02*
X22130Y-43065D01*
X22140Y-43048D01*
X22150Y-43040D01*
X22169Y-43031D01*
X22207Y-43022D01*
X22254Y-43022D01*
X22292Y-43031D01*
X22311Y-43040D01*
X22321Y-43048D01*
X22330Y-43065D01*
X22330Y-43082D01*
X22321Y-43100D01*
X22311Y-43108D01*
X22292Y-43117D01*
X22254Y-43125D01*
X22207Y-43125D01*
X22169Y-43117D01*
X22150Y-43108D01*
X22140Y-43100D01*
X22130Y-43082D01*
X42580Y-45530D02*
X42485Y-45590D01*
X42580Y-45632D02*
X42380Y-45632D01*
X42380Y-45564D01*
X42390Y-45547D01*
X42400Y-45538D01*
X42419Y-45530D01*
X42447Y-45530D01*
X42466Y-45538D01*
X42476Y-45547D01*
X42485Y-45564D01*
X42485Y-45632D01*
X42380Y-45375D02*
X42380Y-45410D01*
X42390Y-45427D01*
X42400Y-45435D01*
X42428Y-45452D01*
X42466Y-45461D01*
X42542Y-45461D01*
X42561Y-45452D01*
X42571Y-45444D01*
X42580Y-45427D01*
X42580Y-45392D01*
X42571Y-45375D01*
X42561Y-45367D01*
X42542Y-45358D01*
X42495Y-45358D01*
X42476Y-45367D01*
X42466Y-45375D01*
X42457Y-45392D01*
X42457Y-45427D01*
X42466Y-45444D01*
X42476Y-45452D01*
X42495Y-45461D01*
X41580Y-45530D02*
X41485Y-45590D01*
X41580Y-45632D02*
X41380Y-45632D01*
X41380Y-45564D01*
X41390Y-45547D01*
X41400Y-45538D01*
X41419Y-45530D01*
X41447Y-45530D01*
X41466Y-45538D01*
X41476Y-45547D01*
X41485Y-45564D01*
X41485Y-45632D01*
X41466Y-45427D02*
X41457Y-45444D01*
X41447Y-45452D01*
X41428Y-45461D01*
X41419Y-45461D01*
X41400Y-45452D01*
X41390Y-45444D01*
X41380Y-45427D01*
X41380Y-45392D01*
X41390Y-45375D01*
X41400Y-45367D01*
X41419Y-45358D01*
X41428Y-45358D01*
X41447Y-45367D01*
X41457Y-45375D01*
X41466Y-45392D01*
X41466Y-45427D01*
X41476Y-45444D01*
X41485Y-45452D01*
X41504Y-45461D01*
X41542Y-45461D01*
X41561Y-45452D01*
X41571Y-45444D01*
X41580Y-45427D01*
X41580Y-45392D01*
X41571Y-45375D01*
X41561Y-45367D01*
X41542Y-45358D01*
X41504Y-45358D01*
X41485Y-45367D01*
X41476Y-45375D01*
X41466Y-45392D01*
X23080Y-43365D02*
X22985Y-43425D01*
X23080Y-43468D02*
X22880Y-43468D01*
X22880Y-43400D01*
X22890Y-43382D01*
X22900Y-43374D01*
X22919Y-43365D01*
X22947Y-43365D01*
X22966Y-43374D01*
X22976Y-43382D01*
X22985Y-43400D01*
X22985Y-43468D01*
X23080Y-43194D02*
X23080Y-43297D01*
X23080Y-43245D02*
X22880Y-43245D01*
X22909Y-43262D01*
X22928Y-43280D01*
X22938Y-43297D01*
X22880Y-43082D02*
X22880Y-43065D01*
X22890Y-43048D01*
X22900Y-43040D01*
X22919Y-43031D01*
X22957Y-43022D01*
X23004Y-43022D01*
X23042Y-43031D01*
X23061Y-43040D01*
X23071Y-43048D01*
X23080Y-43065D01*
X23080Y-43082D01*
X23071Y-43100D01*
X23061Y-43108D01*
X23042Y-43117D01*
X23004Y-43125D01*
X22957Y-43125D01*
X22919Y-43117D01*
X22900Y-43108D01*
X22890Y-43100D01*
X22880Y-43082D01*
G54D10*
X27159Y-44565D02*
X27159Y-44753D01*
X26765Y-44753D01*
X27159Y-44228D02*
X27159Y-44453D01*
X27159Y-44340D02*
X26765Y-44340D01*
X26821Y-44378D01*
X26859Y-44415D01*
X26878Y-44453D01*
X26265Y-45024D02*
X26265Y-45099D01*
X26284Y-45137D01*
X26303Y-45156D01*
X26359Y-45193D01*
X26434Y-45212D01*
X26584Y-45212D01*
X26621Y-45193D01*
X26640Y-45174D01*
X26659Y-45137D01*
X26659Y-45062D01*
X26640Y-45024D01*
X26621Y-45006D01*
X26584Y-44987D01*
X26490Y-44987D01*
X26453Y-45006D01*
X26434Y-45024D01*
X26415Y-45062D01*
X26415Y-45137D01*
X26434Y-45174D01*
X26453Y-45193D01*
X26490Y-45212D01*
X26434Y-44762D02*
X26415Y-44799D01*
X26396Y-44818D01*
X26359Y-44837D01*
X26340Y-44837D01*
X26303Y-44818D01*
X26284Y-44799D01*
X26265Y-44762D01*
X26265Y-44687D01*
X26284Y-44649D01*
X26303Y-44631D01*
X26340Y-44612D01*
X26359Y-44612D01*
X26396Y-44631D01*
X26415Y-44649D01*
X26434Y-44687D01*
X26434Y-44762D01*
X26453Y-44799D01*
X26471Y-44818D01*
X26509Y-44837D01*
X26584Y-44837D01*
X26621Y-44818D01*
X26640Y-44799D01*
X26659Y-44762D01*
X26659Y-44687D01*
X26640Y-44649D01*
X26621Y-44631D01*
X26584Y-44612D01*
X26509Y-44612D01*
X26471Y-44631D01*
X26453Y-44649D01*
X26434Y-44687D01*
X26396Y-44443D02*
X26790Y-44443D01*
X26603Y-44256D02*
X26640Y-44237D01*
X26659Y-44200D01*
X26603Y-44443D02*
X26640Y-44425D01*
X26659Y-44387D01*
X26659Y-44312D01*
X26640Y-44275D01*
X26603Y-44256D01*
X26396Y-44256D01*
X26659Y-44031D02*
X26265Y-44031D01*
X26453Y-44031D02*
X26453Y-43806D01*
X26659Y-43806D02*
X26265Y-43806D01*
X38934Y-38659D02*
X38746Y-38659D01*
X38746Y-38265D01*
X39046Y-38303D02*
X39065Y-38284D01*
X39103Y-38265D01*
X39196Y-38265D01*
X39234Y-38284D01*
X39253Y-38303D01*
X39271Y-38340D01*
X39271Y-38378D01*
X39253Y-38434D01*
X39028Y-38659D01*
X39271Y-38659D01*
X37640Y-39159D02*
X37640Y-38765D01*
X37828Y-39159D02*
X37828Y-38765D01*
X38053Y-39159D01*
X38053Y-38765D01*
X38240Y-39159D02*
X38240Y-38765D01*
X38334Y-38765D01*
X38390Y-38784D01*
X38428Y-38821D01*
X38446Y-38859D01*
X38465Y-38934D01*
X38465Y-38990D01*
X38446Y-39065D01*
X38428Y-39103D01*
X38390Y-39140D01*
X38334Y-39159D01*
X38240Y-39159D01*
X38634Y-38765D02*
X38634Y-39084D01*
X38653Y-39121D01*
X38671Y-39140D01*
X38709Y-39159D01*
X38784Y-39159D01*
X38821Y-39140D01*
X38840Y-39121D01*
X38859Y-39084D01*
X38859Y-38765D01*
X39271Y-39121D02*
X39253Y-39140D01*
X39196Y-39159D01*
X39159Y-39159D01*
X39103Y-39140D01*
X39065Y-39103D01*
X39046Y-39065D01*
X39028Y-38990D01*
X39028Y-38934D01*
X39046Y-38859D01*
X39065Y-38821D01*
X39103Y-38784D01*
X39159Y-38765D01*
X39196Y-38765D01*
X39253Y-38784D01*
X39271Y-38803D01*
X39384Y-38765D02*
X39609Y-38765D01*
X39496Y-39159D02*
X39496Y-38765D01*
X39815Y-38765D02*
X39890Y-38765D01*
X39928Y-38784D01*
X39965Y-38821D01*
X39984Y-38896D01*
X39984Y-39028D01*
X39965Y-39103D01*
X39928Y-39140D01*
X39890Y-39159D01*
X39815Y-39159D01*
X39778Y-39140D01*
X39740Y-39103D01*
X39721Y-39028D01*
X39721Y-38896D01*
X39740Y-38821D01*
X39778Y-38784D01*
X39815Y-38765D01*
X40377Y-39159D02*
X40246Y-38971D01*
X40152Y-39159D02*
X40152Y-38765D01*
X40302Y-38765D01*
X40340Y-38784D01*
X40359Y-38803D01*
X40377Y-38840D01*
X40377Y-38896D01*
X40359Y-38934D01*
X40340Y-38953D01*
X40302Y-38971D01*
X40152Y-38971D01*
G54D12*
X13746Y-45346D02*
X13446Y-45346D01*
X13446Y-45232D01*
X13460Y-45203D01*
X13475Y-45189D01*
X13503Y-45175D01*
X13546Y-45175D01*
X13575Y-45189D01*
X13589Y-45203D01*
X13603Y-45232D01*
X13603Y-45346D01*
X13746Y-44889D02*
X13746Y-45060D01*
X13746Y-44975D02*
X13446Y-44975D01*
X13489Y-45003D01*
X13517Y-45032D01*
X13532Y-45060D01*
X26619Y-35102D02*
X26619Y-35507D01*
X26642Y-35554D01*
X26666Y-35578D01*
X26714Y-35602D01*
X26809Y-35602D01*
X26857Y-35578D01*
X26880Y-35554D01*
X26904Y-35507D01*
X26904Y-35102D01*
X27095Y-35102D02*
X27404Y-35102D01*
X27238Y-35292D01*
X27309Y-35292D01*
X27357Y-35316D01*
X27380Y-35340D01*
X27404Y-35388D01*
X27404Y-35507D01*
X27380Y-35554D01*
X27357Y-35578D01*
X27309Y-35602D01*
X27166Y-35602D01*
X27119Y-35578D01*
X27095Y-35554D01*
X25404Y-39640D02*
X25476Y-39664D01*
X25500Y-39688D01*
X25523Y-39735D01*
X25523Y-39807D01*
X25500Y-39854D01*
X25476Y-39878D01*
X25428Y-39902D01*
X25238Y-39902D01*
X25238Y-39402D01*
X25404Y-39402D01*
X25452Y-39426D01*
X25476Y-39450D01*
X25500Y-39497D01*
X25500Y-39545D01*
X25476Y-39592D01*
X25452Y-39616D01*
X25404Y-39640D01*
X25238Y-39640D01*
X25666Y-39402D02*
X25952Y-39402D01*
X25809Y-39902D02*
X25809Y-39402D01*
X26095Y-39878D02*
X26166Y-39902D01*
X26285Y-39902D01*
X26333Y-39878D01*
X26357Y-39854D01*
X26380Y-39807D01*
X26380Y-39759D01*
X26357Y-39711D01*
X26333Y-39688D01*
X26285Y-39664D01*
X26190Y-39640D01*
X26142Y-39616D01*
X26119Y-39592D01*
X26095Y-39545D01*
X26095Y-39497D01*
X26119Y-39450D01*
X26142Y-39426D01*
X26190Y-39402D01*
X26309Y-39402D01*
X26380Y-39426D01*
X26547Y-39402D02*
X26857Y-39402D01*
X26690Y-39592D01*
X26761Y-39592D01*
X26809Y-39616D01*
X26833Y-39640D01*
X26857Y-39688D01*
X26857Y-39807D01*
X26833Y-39854D01*
X26809Y-39878D01*
X26761Y-39902D01*
X26619Y-39902D01*
X26571Y-39878D01*
X26547Y-39854D01*
X27333Y-39902D02*
X27047Y-39902D01*
X27190Y-39902D02*
X27190Y-39402D01*
X27142Y-39473D01*
X27095Y-39521D01*
X27047Y-39545D01*
X27500Y-39402D02*
X27809Y-39402D01*
X27642Y-39592D01*
X27714Y-39592D01*
X27761Y-39616D01*
X27785Y-39640D01*
X27809Y-39688D01*
X27809Y-39807D01*
X27785Y-39854D01*
X27761Y-39878D01*
X27714Y-39902D01*
X27571Y-39902D01*
X27523Y-39878D01*
X27500Y-39854D01*
X28238Y-39569D02*
X28238Y-39902D01*
X28119Y-39378D02*
X28000Y-39735D01*
X28309Y-39735D01*
X28500Y-39902D02*
X28500Y-39402D01*
X28619Y-39402D01*
X28690Y-39426D01*
X28738Y-39473D01*
X28761Y-39521D01*
X28785Y-39616D01*
X28785Y-39688D01*
X28761Y-39783D01*
X28738Y-39830D01*
X28690Y-39878D01*
X28619Y-39902D01*
X28500Y-39902D01*
X12246Y-46346D02*
X11946Y-46346D01*
X11946Y-46232D01*
X11960Y-46203D01*
X11975Y-46189D01*
X12003Y-46175D01*
X12046Y-46175D01*
X12075Y-46189D01*
X12089Y-46203D01*
X12103Y-46232D01*
X12103Y-46346D01*
X11946Y-45903D02*
X11946Y-46046D01*
X12089Y-46060D01*
X12075Y-46046D01*
X12060Y-46017D01*
X12060Y-45946D01*
X12075Y-45917D01*
X12089Y-45903D01*
X12117Y-45889D01*
X12189Y-45889D01*
X12217Y-45903D01*
X12232Y-45917D01*
X12246Y-45946D01*
X12246Y-46017D01*
X12232Y-46046D01*
X12217Y-46060D01*
X45135Y-43871D02*
X45135Y-43571D01*
X45250Y-43571D01*
X45278Y-43585D01*
X45292Y-43600D01*
X45307Y-43628D01*
X45307Y-43671D01*
X45292Y-43700D01*
X45278Y-43714D01*
X45250Y-43728D01*
X45135Y-43728D01*
X45592Y-43871D02*
X45421Y-43871D01*
X45507Y-43871D02*
X45507Y-43571D01*
X45478Y-43614D01*
X45450Y-43642D01*
X45421Y-43657D01*
X45850Y-43671D02*
X45850Y-43871D01*
X45778Y-43557D02*
X45707Y-43771D01*
X45892Y-43771D01*
X21278Y-34871D02*
X21278Y-34571D01*
X21392Y-34571D01*
X21421Y-34585D01*
X21435Y-34600D01*
X21450Y-34628D01*
X21450Y-34671D01*
X21435Y-34700D01*
X21421Y-34714D01*
X21392Y-34728D01*
X21278Y-34728D01*
X21550Y-34571D02*
X21750Y-34571D01*
X21621Y-34871D01*
X15246Y-47346D02*
X14946Y-47346D01*
X14946Y-47232D01*
X14960Y-47203D01*
X14975Y-47189D01*
X15003Y-47175D01*
X15046Y-47175D01*
X15075Y-47189D01*
X15089Y-47203D01*
X15103Y-47232D01*
X15103Y-47346D01*
X15075Y-47003D02*
X15060Y-47032D01*
X15046Y-47046D01*
X15017Y-47060D01*
X15003Y-47060D01*
X14975Y-47046D01*
X14960Y-47032D01*
X14946Y-47003D01*
X14946Y-46946D01*
X14960Y-46917D01*
X14975Y-46903D01*
X15003Y-46889D01*
X15017Y-46889D01*
X15046Y-46903D01*
X15060Y-46917D01*
X15075Y-46946D01*
X15075Y-47003D01*
X15089Y-47032D01*
X15103Y-47046D01*
X15132Y-47060D01*
X15189Y-47060D01*
X15217Y-47046D01*
X15232Y-47032D01*
X15246Y-47003D01*
X15246Y-46946D01*
X15232Y-46917D01*
X15217Y-46903D01*
X15189Y-46889D01*
X15132Y-46889D01*
X15103Y-46903D01*
X15089Y-46917D01*
X15075Y-46946D01*
X19635Y-34871D02*
X19635Y-34571D01*
X19750Y-34571D01*
X19778Y-34585D01*
X19792Y-34600D01*
X19807Y-34628D01*
X19807Y-34671D01*
X19792Y-34700D01*
X19778Y-34714D01*
X19750Y-34728D01*
X19635Y-34728D01*
X20092Y-34871D02*
X19921Y-34871D01*
X20007Y-34871D02*
X20007Y-34571D01*
X19978Y-34614D01*
X19950Y-34642D01*
X19921Y-34657D01*
X20378Y-34871D02*
X20207Y-34871D01*
X20292Y-34871D02*
X20292Y-34571D01*
X20264Y-34614D01*
X20235Y-34642D01*
X20207Y-34657D01*
X13746Y-46489D02*
X13446Y-46489D01*
X13446Y-46375D01*
X13460Y-46346D01*
X13475Y-46332D01*
X13503Y-46317D01*
X13546Y-46317D01*
X13575Y-46332D01*
X13589Y-46346D01*
X13603Y-46375D01*
X13603Y-46489D01*
X13746Y-46032D02*
X13746Y-46203D01*
X13746Y-46117D02*
X13446Y-46117D01*
X13489Y-46146D01*
X13517Y-46175D01*
X13532Y-46203D01*
X13446Y-45846D02*
X13446Y-45817D01*
X13460Y-45789D01*
X13475Y-45775D01*
X13503Y-45760D01*
X13560Y-45746D01*
X13632Y-45746D01*
X13689Y-45760D01*
X13717Y-45775D01*
X13732Y-45789D01*
X13746Y-45817D01*
X13746Y-45846D01*
X13732Y-45875D01*
X13717Y-45889D01*
X13689Y-45903D01*
X13632Y-45917D01*
X13560Y-45917D01*
X13503Y-45903D01*
X13475Y-45889D01*
X13460Y-45875D01*
X13446Y-45846D01*
X12246Y-45346D02*
X11946Y-45346D01*
X11946Y-45232D01*
X11960Y-45203D01*
X11975Y-45189D01*
X12003Y-45175D01*
X12046Y-45175D01*
X12075Y-45189D01*
X12089Y-45203D01*
X12103Y-45232D01*
X12103Y-45346D01*
X12246Y-45032D02*
X12246Y-44975D01*
X12232Y-44946D01*
X12217Y-44932D01*
X12175Y-44903D01*
X12117Y-44889D01*
X12003Y-44889D01*
X11975Y-44903D01*
X11960Y-44917D01*
X11946Y-44946D01*
X11946Y-45003D01*
X11960Y-45032D01*
X11975Y-45046D01*
X12003Y-45060D01*
X12075Y-45060D01*
X12103Y-45046D01*
X12117Y-45032D01*
X12132Y-45003D01*
X12132Y-44946D01*
X12117Y-44917D01*
X12103Y-44903D01*
X12075Y-44889D01*
X13746Y-47346D02*
X13446Y-47346D01*
X13446Y-47232D01*
X13460Y-47203D01*
X13475Y-47189D01*
X13503Y-47175D01*
X13546Y-47175D01*
X13575Y-47189D01*
X13589Y-47203D01*
X13603Y-47232D01*
X13603Y-47346D01*
X13446Y-46917D02*
X13446Y-46975D01*
X13460Y-47003D01*
X13475Y-47017D01*
X13517Y-47046D01*
X13575Y-47060D01*
X13689Y-47060D01*
X13717Y-47046D01*
X13732Y-47032D01*
X13746Y-47003D01*
X13746Y-46946D01*
X13732Y-46917D01*
X13717Y-46903D01*
X13689Y-46889D01*
X13617Y-46889D01*
X13589Y-46903D01*
X13575Y-46917D01*
X13560Y-46946D01*
X13560Y-47003D01*
X13575Y-47032D01*
X13589Y-47046D01*
X13617Y-47060D01*
X15246Y-45346D02*
X14946Y-45346D01*
X14946Y-45232D01*
X14960Y-45203D01*
X14975Y-45189D01*
X15003Y-45175D01*
X15046Y-45175D01*
X15075Y-45189D01*
X15089Y-45203D01*
X15103Y-45232D01*
X15103Y-45346D01*
X15046Y-44917D02*
X15246Y-44917D01*
X14932Y-44989D02*
X15146Y-45060D01*
X15146Y-44875D01*
X12246Y-47346D02*
X11946Y-47346D01*
X11946Y-47232D01*
X11960Y-47203D01*
X11975Y-47189D01*
X12003Y-47175D01*
X12046Y-47175D01*
X12075Y-47189D01*
X12089Y-47203D01*
X12103Y-47232D01*
X12103Y-47346D01*
X11946Y-47075D02*
X11946Y-46889D01*
X12060Y-46989D01*
X12060Y-46946D01*
X12075Y-46917D01*
X12089Y-46903D01*
X12117Y-46889D01*
X12189Y-46889D01*
X12217Y-46903D01*
X12232Y-46917D01*
X12246Y-46946D01*
X12246Y-47032D01*
X12232Y-47060D01*
X12217Y-47075D01*
X15246Y-46346D02*
X14946Y-46346D01*
X14946Y-46232D01*
X14960Y-46203D01*
X14975Y-46189D01*
X15003Y-46175D01*
X15046Y-46175D01*
X15075Y-46189D01*
X15089Y-46203D01*
X15103Y-46232D01*
X15103Y-46346D01*
X14975Y-46060D02*
X14960Y-46046D01*
X14946Y-46017D01*
X14946Y-45946D01*
X14960Y-45917D01*
X14975Y-45903D01*
X15003Y-45889D01*
X15032Y-45889D01*
X15075Y-45903D01*
X15246Y-46075D01*
X15246Y-45889D01*
X45135Y-45371D02*
X45135Y-45071D01*
X45250Y-45071D01*
X45278Y-45085D01*
X45292Y-45100D01*
X45307Y-45128D01*
X45307Y-45171D01*
X45292Y-45200D01*
X45278Y-45214D01*
X45250Y-45228D01*
X45135Y-45228D01*
X45592Y-45371D02*
X45421Y-45371D01*
X45507Y-45371D02*
X45507Y-45071D01*
X45478Y-45114D01*
X45450Y-45142D01*
X45421Y-45157D01*
X45707Y-45100D02*
X45721Y-45085D01*
X45750Y-45071D01*
X45821Y-45071D01*
X45850Y-45085D01*
X45864Y-45100D01*
X45878Y-45128D01*
X45878Y-45157D01*
X45864Y-45200D01*
X45692Y-45371D01*
X45878Y-45371D01*
X45135Y-39871D02*
X45135Y-39571D01*
X45250Y-39571D01*
X45278Y-39585D01*
X45292Y-39600D01*
X45307Y-39628D01*
X45307Y-39671D01*
X45292Y-39700D01*
X45278Y-39714D01*
X45250Y-39728D01*
X45135Y-39728D01*
X45592Y-39871D02*
X45421Y-39871D01*
X45507Y-39871D02*
X45507Y-39571D01*
X45478Y-39614D01*
X45450Y-39642D01*
X45421Y-39657D01*
X45692Y-39571D02*
X45878Y-39571D01*
X45778Y-39685D01*
X45821Y-39685D01*
X45850Y-39700D01*
X45864Y-39714D01*
X45878Y-39742D01*
X45878Y-39814D01*
X45864Y-39842D01*
X45850Y-39857D01*
X45821Y-39871D01*
X45735Y-39871D01*
X45707Y-39857D01*
X45692Y-39842D01*
X45135Y-41371D02*
X45135Y-41071D01*
X45250Y-41071D01*
X45278Y-41085D01*
X45292Y-41100D01*
X45307Y-41128D01*
X45307Y-41171D01*
X45292Y-41200D01*
X45278Y-41214D01*
X45250Y-41228D01*
X45135Y-41228D01*
X45592Y-41371D02*
X45421Y-41371D01*
X45507Y-41371D02*
X45507Y-41071D01*
X45478Y-41114D01*
X45450Y-41142D01*
X45421Y-41157D01*
X45864Y-41071D02*
X45721Y-41071D01*
X45707Y-41214D01*
X45721Y-41200D01*
X45750Y-41185D01*
X45821Y-41185D01*
X45850Y-41200D01*
X45864Y-41214D01*
X45878Y-41242D01*
X45878Y-41314D01*
X45864Y-41342D01*
X45850Y-41357D01*
X45821Y-41371D01*
X45750Y-41371D01*
X45721Y-41357D01*
X45707Y-41342D01*
G54D19*
X42363Y-37067D02*
X42348Y-37096D01*
X42320Y-37124D01*
X42277Y-37167D01*
X42263Y-37196D01*
X42263Y-37224D01*
X42334Y-37210D02*
X42320Y-37239D01*
X42291Y-37267D01*
X42234Y-37281D01*
X42134Y-37281D01*
X42077Y-37267D01*
X42048Y-37239D01*
X42034Y-37210D01*
X42034Y-37153D01*
X42048Y-37124D01*
X42077Y-37096D01*
X42134Y-37081D01*
X42234Y-37081D01*
X42291Y-37096D01*
X42320Y-37124D01*
X42334Y-37153D01*
X42334Y-37210D01*
X42034Y-36981D02*
X42034Y-36796D01*
X42148Y-36896D01*
X42148Y-36853D01*
X42163Y-36824D01*
X42177Y-36810D01*
X42205Y-36796D01*
X42277Y-36796D01*
X42305Y-36810D01*
X42320Y-36824D01*
X42334Y-36853D01*
X42334Y-36939D01*
X42320Y-36967D01*
X42305Y-36981D01*
G54D14*
X42186Y-37070D02*
X42215Y-37079D01*
X42262Y-37079D01*
X42280Y-37070D01*
X42290Y-37060D01*
X42299Y-37042D01*
X42299Y-37023D01*
X42290Y-37004D01*
X42280Y-36995D01*
X42262Y-36985D01*
X42224Y-36976D01*
X42205Y-36967D01*
X42196Y-36957D01*
X42186Y-36939D01*
X42186Y-36920D01*
X42196Y-36901D01*
X42205Y-36892D01*
X42224Y-36882D01*
X42271Y-36882D01*
X42299Y-36892D01*
X42421Y-36882D02*
X42459Y-36882D01*
X42477Y-36892D01*
X42496Y-36910D01*
X42505Y-36948D01*
X42505Y-37014D01*
X42496Y-37051D01*
X42477Y-37070D01*
X42459Y-37079D01*
X42421Y-37079D01*
X42402Y-37070D01*
X42383Y-37051D01*
X42374Y-37014D01*
X42374Y-36948D01*
X42383Y-36910D01*
X42402Y-36892D01*
X42421Y-36882D01*
X42590Y-37079D02*
X42590Y-36882D01*
X42656Y-37023D01*
X42721Y-36882D01*
X42721Y-37079D01*
X42815Y-36976D02*
X42881Y-36976D01*
X42909Y-37079D02*
X42815Y-37079D01*
X42815Y-36882D01*
X42909Y-36882D01*
X42965Y-36882D02*
X43078Y-36882D01*
X43021Y-37079D02*
X43021Y-36882D01*
X43143Y-37079D02*
X43143Y-36882D01*
X43143Y-36976D02*
X43256Y-36976D01*
X43256Y-37079D02*
X43256Y-36882D01*
X43350Y-37079D02*
X43350Y-36882D01*
X43444Y-37079D02*
X43444Y-36882D01*
X43556Y-37079D01*
X43556Y-36882D01*
X43753Y-36892D02*
X43734Y-36882D01*
X43706Y-36882D01*
X43678Y-36892D01*
X43659Y-36910D01*
X43650Y-36929D01*
X43641Y-36967D01*
X43641Y-36995D01*
X43650Y-37032D01*
X43659Y-37051D01*
X43678Y-37070D01*
X43706Y-37079D01*
X43725Y-37079D01*
X43753Y-37070D01*
X43763Y-37060D01*
X43763Y-36995D01*
X43725Y-36995D01*
G54D19*
X44932Y-36363D02*
X44903Y-36348D01*
X44875Y-36320D01*
X44832Y-36277D01*
X44803Y-36263D01*
X44775Y-36263D01*
X44789Y-36334D02*
X44761Y-36320D01*
X44732Y-36291D01*
X44718Y-36234D01*
X44718Y-36134D01*
X44732Y-36077D01*
X44761Y-36048D01*
X44789Y-36034D01*
X44846Y-36034D01*
X44875Y-36048D01*
X44903Y-36077D01*
X44918Y-36134D01*
X44918Y-36234D01*
X44903Y-36291D01*
X44875Y-36320D01*
X44846Y-36334D01*
X44789Y-36334D01*
X45032Y-36063D02*
X45046Y-36048D01*
X45075Y-36034D01*
X45146Y-36034D01*
X45175Y-36048D01*
X45189Y-36063D01*
X45203Y-36091D01*
X45203Y-36120D01*
X45189Y-36163D01*
X45018Y-36334D01*
X45203Y-36334D01*
G54D14*
X44976Y-37650D02*
X44985Y-37622D01*
X44995Y-37612D01*
X45014Y-37603D01*
X45042Y-37603D01*
X45060Y-37612D01*
X45070Y-37622D01*
X45079Y-37641D01*
X45079Y-37716D01*
X44882Y-37716D01*
X44882Y-37650D01*
X44892Y-37631D01*
X44901Y-37622D01*
X44920Y-37612D01*
X44939Y-37612D01*
X44957Y-37622D01*
X44967Y-37631D01*
X44976Y-37650D01*
X44976Y-37716D01*
X45060Y-37406D02*
X45070Y-37415D01*
X45079Y-37444D01*
X45079Y-37462D01*
X45070Y-37490D01*
X45051Y-37509D01*
X45032Y-37519D01*
X44995Y-37528D01*
X44967Y-37528D01*
X44929Y-37519D01*
X44910Y-37509D01*
X44892Y-37490D01*
X44882Y-37462D01*
X44882Y-37444D01*
X44892Y-37415D01*
X44901Y-37406D01*
X44967Y-37293D02*
X44957Y-37312D01*
X44948Y-37322D01*
X44929Y-37331D01*
X44920Y-37331D01*
X44901Y-37322D01*
X44892Y-37312D01*
X44882Y-37293D01*
X44882Y-37256D01*
X44892Y-37237D01*
X44901Y-37228D01*
X44920Y-37218D01*
X44929Y-37218D01*
X44948Y-37228D01*
X44957Y-37237D01*
X44967Y-37256D01*
X44967Y-37293D01*
X44976Y-37312D01*
X44985Y-37322D01*
X45004Y-37331D01*
X45042Y-37331D01*
X45060Y-37322D01*
X45070Y-37312D01*
X45079Y-37293D01*
X45079Y-37256D01*
X45070Y-37237D01*
X45060Y-37228D01*
X45042Y-37218D01*
X45004Y-37218D01*
X44985Y-37228D01*
X44976Y-37237D01*
X44967Y-37256D01*
X45079Y-37031D02*
X45079Y-37143D01*
X45079Y-37087D02*
X44882Y-37087D01*
X44910Y-37106D01*
X44929Y-37125D01*
X44939Y-37143D01*
X44882Y-36965D02*
X44882Y-36834D01*
X45079Y-36918D01*
X45004Y-36759D02*
X45004Y-36609D01*
X44948Y-36430D02*
X45079Y-36430D01*
X44873Y-36477D02*
X45014Y-36524D01*
X45014Y-36402D01*
X44882Y-36290D02*
X44882Y-36271D01*
X44892Y-36252D01*
X44901Y-36243D01*
X44920Y-36233D01*
X44957Y-36224D01*
X45004Y-36224D01*
X45042Y-36233D01*
X45060Y-36243D01*
X45070Y-36252D01*
X45079Y-36271D01*
X45079Y-36290D01*
X45070Y-36308D01*
X45060Y-36318D01*
X45042Y-36327D01*
X45004Y-36337D01*
X44957Y-36337D01*
X44920Y-36327D01*
X44901Y-36318D01*
X44892Y-36308D01*
X44882Y-36290D01*
G54D19*
X42363Y-40317D02*
X42348Y-40346D01*
X42320Y-40374D01*
X42277Y-40417D01*
X42263Y-40446D01*
X42263Y-40474D01*
X42334Y-40460D02*
X42320Y-40489D01*
X42291Y-40517D01*
X42234Y-40531D01*
X42134Y-40531D01*
X42077Y-40517D01*
X42048Y-40489D01*
X42034Y-40460D01*
X42034Y-40403D01*
X42048Y-40374D01*
X42077Y-40346D01*
X42134Y-40331D01*
X42234Y-40331D01*
X42291Y-40346D01*
X42320Y-40374D01*
X42334Y-40403D01*
X42334Y-40460D01*
X42334Y-40046D02*
X42334Y-40217D01*
X42334Y-40131D02*
X42034Y-40131D01*
X42077Y-40160D01*
X42105Y-40189D01*
X42120Y-40217D01*
G54D14*
X42299Y-40226D02*
X42327Y-40235D01*
X42337Y-40245D01*
X42346Y-40264D01*
X42346Y-40292D01*
X42337Y-40310D01*
X42327Y-40320D01*
X42308Y-40329D01*
X42233Y-40329D01*
X42233Y-40132D01*
X42299Y-40132D01*
X42318Y-40142D01*
X42327Y-40151D01*
X42337Y-40170D01*
X42337Y-40189D01*
X42327Y-40207D01*
X42318Y-40217D01*
X42299Y-40226D01*
X42233Y-40226D01*
X42543Y-40310D02*
X42534Y-40320D01*
X42505Y-40329D01*
X42487Y-40329D01*
X42459Y-40320D01*
X42440Y-40301D01*
X42430Y-40282D01*
X42421Y-40245D01*
X42421Y-40217D01*
X42430Y-40179D01*
X42440Y-40160D01*
X42459Y-40142D01*
X42487Y-40132D01*
X42505Y-40132D01*
X42534Y-40142D01*
X42543Y-40151D01*
X42656Y-40217D02*
X42637Y-40207D01*
X42627Y-40198D01*
X42618Y-40179D01*
X42618Y-40170D01*
X42627Y-40151D01*
X42637Y-40142D01*
X42656Y-40132D01*
X42693Y-40132D01*
X42712Y-40142D01*
X42721Y-40151D01*
X42731Y-40170D01*
X42731Y-40179D01*
X42721Y-40198D01*
X42712Y-40207D01*
X42693Y-40217D01*
X42656Y-40217D01*
X42637Y-40226D01*
X42627Y-40235D01*
X42618Y-40254D01*
X42618Y-40292D01*
X42627Y-40310D01*
X42637Y-40320D01*
X42656Y-40329D01*
X42693Y-40329D01*
X42712Y-40320D01*
X42721Y-40310D01*
X42731Y-40292D01*
X42731Y-40254D01*
X42721Y-40235D01*
X42712Y-40226D01*
X42693Y-40217D01*
X42918Y-40329D02*
X42806Y-40329D01*
X42862Y-40329D02*
X42862Y-40132D01*
X42843Y-40160D01*
X42824Y-40179D01*
X42806Y-40189D01*
X42984Y-40132D02*
X43115Y-40132D01*
X43031Y-40329D01*
X43190Y-40254D02*
X43340Y-40254D01*
X43519Y-40198D02*
X43519Y-40329D01*
X43472Y-40123D02*
X43425Y-40264D01*
X43547Y-40264D01*
X43659Y-40132D02*
X43678Y-40132D01*
X43697Y-40142D01*
X43706Y-40151D01*
X43716Y-40170D01*
X43725Y-40207D01*
X43725Y-40254D01*
X43716Y-40292D01*
X43706Y-40310D01*
X43697Y-40320D01*
X43678Y-40329D01*
X43659Y-40329D01*
X43641Y-40320D01*
X43631Y-40310D01*
X43622Y-40292D01*
X43612Y-40254D01*
X43612Y-40207D01*
X43622Y-40170D01*
X43631Y-40151D01*
X43641Y-40142D01*
X43659Y-40132D01*
G54D16*
X16695Y-37061D02*
X16695Y-37385D01*
X16714Y-37423D01*
X16733Y-37442D01*
X16771Y-37461D01*
X16847Y-37461D01*
X16885Y-37442D01*
X16904Y-37423D01*
X16923Y-37385D01*
X16923Y-37061D01*
X17095Y-37100D02*
X17114Y-37080D01*
X17152Y-37061D01*
X17247Y-37061D01*
X17285Y-37080D01*
X17304Y-37100D01*
X17323Y-37138D01*
X17323Y-37176D01*
X17304Y-37233D01*
X17076Y-37461D01*
X17323Y-37461D01*
X15952Y-36861D02*
X15761Y-36861D01*
X15761Y-36461D01*
X16085Y-36861D02*
X16085Y-36461D01*
X16219Y-36747D01*
X16352Y-36461D01*
X16352Y-36861D01*
X16752Y-36861D02*
X16523Y-36861D01*
X16638Y-36861D02*
X16638Y-36461D01*
X16600Y-36519D01*
X16561Y-36557D01*
X16523Y-36576D01*
X17133Y-36861D02*
X16904Y-36861D01*
X17019Y-36861D02*
X17019Y-36461D01*
X16980Y-36519D01*
X16942Y-36557D01*
X16904Y-36576D01*
X17514Y-36861D02*
X17285Y-36861D01*
X17400Y-36861D02*
X17400Y-36461D01*
X17361Y-36519D01*
X17323Y-36557D01*
X17285Y-36576D01*
X17647Y-36461D02*
X17914Y-36461D01*
X17742Y-36861D01*
X18066Y-36652D02*
X18200Y-36652D01*
X18257Y-36861D02*
X18066Y-36861D01*
X18066Y-36461D01*
X18257Y-36461D01*
G54D10*
X19521Y-43270D02*
X19915Y-43861D01*
X19915Y-43270D02*
X19521Y-43861D01*
X20449Y-43861D02*
X20112Y-43861D01*
X20281Y-43861D02*
X20281Y-43270D01*
X20224Y-43354D01*
X20168Y-43411D01*
X20112Y-43439D01*
X19001Y-46498D02*
X18664Y-46498D01*
X18832Y-46498D02*
X18832Y-45908D01*
X18776Y-45992D01*
X18720Y-46048D01*
X18664Y-46077D01*
X19507Y-45908D02*
X19395Y-45908D01*
X19339Y-45936D01*
X19311Y-45964D01*
X19254Y-46048D01*
X19226Y-46161D01*
X19226Y-46386D01*
X19254Y-46442D01*
X19282Y-46470D01*
X19339Y-46498D01*
X19451Y-46498D01*
X19507Y-46470D01*
X19535Y-46442D01*
X19564Y-46386D01*
X19564Y-46245D01*
X19535Y-46189D01*
X19507Y-46161D01*
X19451Y-46133D01*
X19339Y-46133D01*
X19282Y-46161D01*
X19254Y-46189D01*
X19226Y-46245D01*
X19817Y-46498D02*
X19817Y-45908D01*
X20014Y-46330D01*
X20210Y-45908D01*
X20210Y-46498D01*
X20492Y-46498D02*
X20492Y-45908D01*
X20492Y-46189D02*
X20829Y-46189D01*
X20829Y-46498D02*
X20829Y-45908D01*
X21054Y-46105D02*
X21363Y-46105D01*
X21054Y-46498D01*
X21363Y-46498D01*
G54D19*
X34460Y-42032D02*
X34470Y-42042D01*
X34479Y-42070D01*
X34479Y-42089D01*
X34470Y-42117D01*
X34451Y-42136D01*
X34432Y-42145D01*
X34395Y-42154D01*
X34367Y-42154D01*
X34329Y-42145D01*
X34310Y-42136D01*
X34292Y-42117D01*
X34282Y-42089D01*
X34282Y-42070D01*
X34292Y-42042D01*
X34301Y-42032D01*
X34479Y-41939D02*
X34479Y-41901D01*
X34470Y-41882D01*
X34460Y-41873D01*
X34432Y-41854D01*
X34395Y-41845D01*
X34320Y-41845D01*
X34301Y-41854D01*
X34292Y-41863D01*
X34282Y-41882D01*
X34282Y-41920D01*
X34292Y-41939D01*
X34301Y-41948D01*
X34320Y-41957D01*
X34367Y-41957D01*
X34385Y-41948D01*
X34395Y-41939D01*
X34404Y-41920D01*
X34404Y-41882D01*
X34395Y-41863D01*
X34385Y-41854D01*
X34367Y-41845D01*
X34360Y-38532D02*
X34370Y-38542D01*
X34379Y-38570D01*
X34379Y-38589D01*
X34370Y-38617D01*
X34351Y-38636D01*
X34332Y-38645D01*
X34295Y-38654D01*
X34267Y-38654D01*
X34229Y-38645D01*
X34210Y-38636D01*
X34192Y-38617D01*
X34182Y-38589D01*
X34182Y-38570D01*
X34192Y-38542D01*
X34201Y-38532D01*
X34182Y-38467D02*
X34182Y-38335D01*
X34379Y-38420D01*
X31967Y-46110D02*
X31957Y-46120D01*
X31929Y-46129D01*
X31910Y-46129D01*
X31882Y-46120D01*
X31863Y-46101D01*
X31854Y-46082D01*
X31845Y-46045D01*
X31845Y-46017D01*
X31854Y-45979D01*
X31863Y-45960D01*
X31882Y-45942D01*
X31910Y-45932D01*
X31929Y-45932D01*
X31957Y-45942D01*
X31967Y-45951D01*
X32079Y-46017D02*
X32060Y-46007D01*
X32051Y-45998D01*
X32042Y-45979D01*
X32042Y-45970D01*
X32051Y-45951D01*
X32060Y-45942D01*
X32079Y-45932D01*
X32117Y-45932D01*
X32136Y-45942D01*
X32145Y-45951D01*
X32154Y-45970D01*
X32154Y-45979D01*
X32145Y-45998D01*
X32136Y-46007D01*
X32117Y-46017D01*
X32079Y-46017D01*
X32060Y-46026D01*
X32051Y-46035D01*
X32042Y-46054D01*
X32042Y-46092D01*
X32051Y-46110D01*
X32060Y-46120D01*
X32079Y-46129D01*
X32117Y-46129D01*
X32136Y-46120D01*
X32145Y-46110D01*
X32154Y-46092D01*
X32154Y-46054D01*
X32145Y-46035D01*
X32136Y-46026D01*
X32117Y-46017D01*
X12967Y-35010D02*
X12957Y-35020D01*
X12929Y-35029D01*
X12910Y-35029D01*
X12882Y-35020D01*
X12863Y-35001D01*
X12854Y-34982D01*
X12845Y-34945D01*
X12845Y-34917D01*
X12854Y-34879D01*
X12863Y-34860D01*
X12882Y-34842D01*
X12910Y-34832D01*
X12929Y-34832D01*
X12957Y-34842D01*
X12967Y-34851D01*
X13042Y-34851D02*
X13051Y-34842D01*
X13070Y-34832D01*
X13117Y-34832D01*
X13136Y-34842D01*
X13145Y-34851D01*
X13154Y-34870D01*
X13154Y-34889D01*
X13145Y-34917D01*
X13032Y-35029D01*
X13154Y-35029D01*
G54D18*
X42080Y-38865D02*
X41985Y-38925D01*
X42080Y-38968D02*
X41880Y-38968D01*
X41880Y-38900D01*
X41890Y-38882D01*
X41900Y-38874D01*
X41919Y-38865D01*
X41947Y-38865D01*
X41966Y-38874D01*
X41976Y-38882D01*
X41985Y-38900D01*
X41985Y-38968D01*
X42080Y-38694D02*
X42080Y-38797D01*
X42080Y-38745D02*
X41880Y-38745D01*
X41909Y-38762D01*
X41928Y-38780D01*
X41938Y-38797D01*
X41900Y-38625D02*
X41890Y-38617D01*
X41880Y-38600D01*
X41880Y-38557D01*
X41890Y-38540D01*
X41900Y-38531D01*
X41919Y-38522D01*
X41938Y-38522D01*
X41966Y-38531D01*
X42080Y-38634D01*
X42080Y-38522D01*
M02*
