G04 (created by PCBNEW (2013-may-18)-stable) date Sat 11 Jan 2014 03:04:39 PM CET*
%MOIN*%
G04 Gerber Fmt 3.4, Leading zero omitted, Abs format*
%FSLAX34Y34*%
G01*
G70*
G90*
G04 APERTURE LIST*
%ADD10C,0.00590551*%
%ADD11R,0.06X0.06*%
%ADD12C,0.035*%
%ADD13C,0.032*%
%ADD14C,0.016*%
G04 APERTURE END LIST*
G54D10*
G54D11*
X12875Y-45125D03*
X11375Y-46125D03*
X45500Y-44500D03*
X21500Y-35500D03*
X14375Y-47125D03*
X20000Y-35500D03*
X12875Y-46125D03*
X11375Y-45125D03*
X12875Y-47125D03*
X14375Y-45125D03*
X11375Y-47125D03*
X14375Y-46125D03*
X45500Y-46000D03*
X45500Y-40500D03*
X45500Y-42000D03*
G54D12*
X30500Y-41000D03*
X33250Y-41750D03*
X43750Y-37750D03*
X14750Y-35500D03*
X37000Y-45750D03*
X20000Y-41500D03*
X18750Y-37750D03*
X23250Y-38250D03*
X42000Y-37750D03*
X20750Y-41000D03*
X22750Y-41000D03*
X39100Y-44000D03*
X19500Y-40000D03*
X15250Y-39750D03*
X15250Y-42250D03*
X22250Y-37250D03*
X34500Y-44000D03*
X18250Y-42750D03*
X19000Y-41000D03*
X24500Y-42000D03*
X38500Y-45250D03*
X23250Y-44000D03*
X41000Y-46000D03*
X16500Y-42000D03*
X17000Y-41000D03*
G54D13*
X29750Y-40250D02*
X30500Y-41000D01*
X28750Y-40250D02*
X29750Y-40250D01*
X23500Y-40250D02*
X28750Y-40250D01*
X21500Y-38250D02*
X23500Y-40250D01*
X21500Y-35500D02*
X21500Y-38250D01*
X41250Y-40250D02*
X41250Y-40000D01*
X41250Y-40000D02*
X41500Y-39750D01*
X41500Y-39750D02*
X41750Y-39750D01*
X40500Y-41750D02*
X33250Y-41750D01*
X41250Y-41000D02*
X40500Y-41750D01*
X41250Y-40250D02*
X41250Y-41000D01*
X43000Y-39750D02*
X41750Y-39750D01*
X43750Y-39000D02*
X43000Y-39750D01*
X43750Y-37750D02*
X43750Y-39000D01*
X21500Y-35500D02*
X21500Y-36000D01*
X15500Y-36250D02*
X14750Y-35500D01*
X21250Y-36250D02*
X15500Y-36250D01*
X21500Y-36000D02*
X21250Y-36250D01*
G54D14*
X37000Y-45750D02*
X33750Y-45750D01*
X33750Y-45750D02*
X30500Y-42500D01*
X30500Y-42500D02*
X30000Y-42500D01*
X30000Y-42500D02*
X29000Y-41500D01*
X29000Y-41500D02*
X20000Y-41500D01*
X20000Y-39000D02*
X20000Y-41500D01*
X18750Y-37750D02*
X20000Y-39000D01*
X23250Y-38250D02*
X26250Y-35250D01*
X41250Y-35250D02*
X26250Y-35250D01*
X42000Y-36000D02*
X41250Y-35250D01*
X42000Y-36250D02*
X42000Y-36000D01*
X42000Y-37750D02*
X42000Y-36250D01*
X20750Y-41000D02*
X21000Y-41000D01*
X22750Y-41000D02*
X21000Y-41000D01*
X21000Y-41000D02*
X20750Y-41000D01*
G54D13*
X45500Y-42000D02*
X43600Y-42000D01*
X39700Y-43400D02*
X39100Y-44000D01*
X42200Y-43400D02*
X39700Y-43400D01*
X43600Y-42000D02*
X42200Y-43400D01*
G54D14*
X15750Y-43750D02*
X15750Y-43500D01*
X15750Y-43750D02*
X15750Y-45500D01*
X15750Y-45500D02*
X15125Y-46125D01*
X14375Y-46125D02*
X15125Y-46125D01*
X19250Y-40000D02*
X19500Y-40000D01*
X15750Y-43500D02*
X19250Y-40000D01*
G54D13*
X15250Y-42250D02*
X15250Y-39750D01*
X30000Y-39500D02*
X34500Y-44000D01*
X23750Y-39500D02*
X30000Y-39500D01*
X22250Y-38000D02*
X23750Y-39500D01*
X22250Y-37250D02*
X22250Y-38000D01*
X18250Y-41750D02*
X18250Y-42750D01*
X19000Y-41000D02*
X18250Y-41750D01*
G54D14*
X38500Y-45250D02*
X37500Y-46250D01*
X37500Y-46250D02*
X32750Y-46250D01*
X32750Y-46250D02*
X28500Y-42000D01*
X28500Y-42000D02*
X24500Y-42000D01*
X40500Y-46500D02*
X40250Y-46750D01*
X23250Y-44000D02*
X24750Y-42500D01*
X24750Y-42500D02*
X28500Y-42500D01*
X28500Y-42500D02*
X32500Y-46500D01*
X40500Y-46500D02*
X41000Y-46000D01*
X32750Y-46750D02*
X32500Y-46500D01*
X40250Y-46750D02*
X32750Y-46750D01*
X16500Y-41500D02*
X16500Y-42000D01*
X17000Y-41000D02*
X16500Y-41500D01*
M02*
