M48
;DRILL file {Pcbnew (2013-may-18)-stable} date Sat 11 Jan 2014 02:32:38 PM CET
;FORMAT={-:-/ absolute / inch / decimal}
FMAT,2
INCH,TZ
T1C0.025
T2C0.040
%
G90
G05
M72
T1
X1.475Y-3.55
X1.525Y-3.975
X1.525Y-4.225
X1.65Y-4.2
X1.7Y-4.1
X1.825Y-4.275
X1.875Y-3.775
X1.9Y-4.1
X1.95Y-4.
X2.Y-4.15
X2.075Y-4.1
X2.225Y-3.725
X2.275Y-4.1
X2.325Y-3.825
X2.325Y-4.4
X2.45Y-4.2
X3.05Y-4.1
X3.325Y-4.175
X3.45Y-4.4
X3.7Y-4.575
X3.85Y-4.525
X3.91Y-4.4
X4.1Y-4.6
X4.2Y-3.775
X4.375Y-3.775
T2
X1.1375Y-4.5125
X1.1375Y-4.6125
X1.1375Y-4.7125
X1.2875Y-4.5125
X1.2875Y-4.6125
X1.2875Y-4.7125
X1.4375Y-4.5125
X1.4375Y-4.6125
X1.4375Y-4.7125
X2.Y-3.55
X2.15Y-3.55
X4.55Y-4.05
X4.55Y-4.2
X4.55Y-4.45
X4.55Y-4.6
T0
M30
